<?xml version="1.0" standalone="no"?>
<!DOCTYPE svg PUBLIC "-//W3C//DTD SVG 20010904//EN"
 "http://www.w3.org/TR/2001/REC-SVG-20010904/DTD/svg10.dtd">
<svg version="1.0" xmlns="http://www.w3.org/2000/svg"
 width="229.000000pt" height="97.000000pt" viewBox="0 0 229.000000 97.000000"
 preserveAspectRatio="xMidYMid meet">

<g transform="translate(0.000000,97.000000) scale(0.100000,-0.100000)"
fill="#000000" stroke="none">
<path d="M0 490 l0 -480 1143 2 1142 3 3 478 2 477 -1145 0 -1145 0 0 -480z
m1130 0 l0 -390 -490 0 -490 0 0 390 0 390 490 0 490 0 0 -390z m615 126 c13
-8 28 -31 35 -50 22 -69 -34 -136 -115 -136 -21 0 -25 -5 -25 -30 0 -28 -2
-30 -40 -30 l-40 0 0 128 c0 71 3 132 8 136 12 13 151 -1 177 -18z"/>
<path d="M505 509 c-28 -67 -51 -126 -53 -130 -2 -5 5 -9 16 -9 13 0 24 10 31
30 10 29 12 30 75 30 62 0 64 -1 75 -30 9 -26 41 -43 41 -22 0 4 -22 62 -49
128 -67 161 -72 161 -136 3z m115 -46 c0 -2 -22 -3 -49 -3 l-50 0 16 38 c8 20
20 48 25 62 9 24 11 22 34 -34 13 -33 24 -61 24 -63z"/>
<path d="M1640 534 c0 -33 2 -35 28 -32 21 2 28 9 30 29 2 20 -2 28 -20 33
-36 9 -38 8 -38 -30z"/>
</g>
</svg>
