<svg xmlns="http://www.w3.org/2000/svg" xmlns:xlink="http://www.w3.org/1999/xlink" viewBox="0 0 242.71 220.68"><defs><style>.cls-1{isolation:isolate;}.cls-13,.cls-2,.cls-24{fill:#413f8f;}.cls-2{opacity:0.3;}.cls-19,.cls-2,.cls-21,.cls-24,.cls-25,.cls-26{mix-blend-mode:multiply;}.cls-3{fill:#2f2d6e;}.cls-14,.cls-15,.cls-16,.cls-4{fill:none;}.cls-4{stroke:#2f2d6e;}.cls-14,.cls-4{stroke-linecap:round;stroke-linejoin:round;stroke-width:2.49px;}.cls-11,.cls-5{fill:#fff;}.cls-10,.cls-11,.cls-12,.cls-19,.cls-21,.cls-24,.cls-25,.cls-26,.cls-6,.cls-7,.cls-8,.cls-9{opacity:0.5;}.cls-6{fill:url(#linear-gradient);}.cls-7{fill:#85c441;}.cls-8{fill:#eb2d7c;}.cls-9{fill:#28a8e0;}.cls-10{fill:#f15b2a;}.cls-12,.cls-17,.cls-21{fill:#5588c6;}.cls-14,.cls-15{stroke:#413f8f;}.cls-15,.cls-16{stroke-miterlimit:10;stroke-width:0.5px;}.cls-16{stroke:#5588c6;}.cls-18{fill:#eca1a5;}.cls-19,.cls-27{fill:#cf818c;}.cls-20{fill:#3b2416;}.cls-22{fill:#231f20;}.cls-23,.cls-25{fill:#c3d9e4;}.cls-28{fill:#057cb6;}</style><linearGradient id="linear-gradient" x1="129.31" y1="149.36" x2="129.31" y2="55.06" gradientUnits="userSpaceOnUse"><stop offset="0" stop-color="#5588c6"/><stop offset="0.1" stop-color="#6f9acf" stop-opacity="0.85"/><stop offset="0.3" stop-color="#a2bee0" stop-opacity="0.55"/><stop offset="0.49" stop-color="#cadaed" stop-opacity="0.31"/><stop offset="0.66" stop-color="#e7eef7" stop-opacity="0.14"/><stop offset="0.79" stop-color="#f9fbfd" stop-opacity="0.04"/><stop offset="0.89" stop-color="#fff" stop-opacity="0"/></linearGradient></defs><g class="cls-1"><g id="Layer_1" data-name="Layer 1"><path class="cls-2" d="M427.35,503.07c0,2.11-54.33,3.81-121.35,3.81s-121.35-1.7-121.35-3.81S239,499.26,306,499.26,427.35,501,427.35,503.07Z" transform="translate(-184.65 -286.2)"/><polygon class="cls-3" points="110.47 147.73 100.98 54.99 169.08 54.99 178.58 147.73 110.47 147.73"/><path class="cls-3" d="M303.23,500.92,287,342.44h65.6l16.23,158.48h2.5L355,341.07a1.24,1.24,0,0,0-1.23-1.12H285.62a1.23,1.23,0,0,0-.92.41,1.25,1.25,0,0,0-.32,1l16.34,159.6Z" transform="translate(-184.65 -286.2)"/><line class="cls-4" x1="178.58" y1="147.73" x2="110.47" y2="147.73"/><polygon class="cls-5" points="158.62 147.73 168.11 54.99 100.01 54.99 90.51 147.73 158.62 147.73"/><polygon class="cls-6" points="158.62 147.73 168.11 54.99 100.01 54.99 90.51 147.73 158.62 147.73"/><polygon class="cls-7" points="104.62 78 100.03 122.78 109.01 122.78 113.59 78 104.62 78"/><polygon class="cls-8" points="118.38 88.76 114.9 122.78 123.87 122.78 127.35 88.76 118.38 88.76"/><polygon class="cls-9" points="131.63 97.65 129.06 122.78 138.03 122.78 140.6 97.65 131.63 97.65"/><polygon class="cls-10" points="148.54 84.55 144.62 122.78 153.6 122.78 157.51 84.55 148.54 84.55"/><polygon class="cls-11" points="155.13 141.3 155.26 140.03 94.52 140.03 94.39 141.3 155.13 141.3"/><polygon class="cls-11" points="155.59 138.26 155.72 136.99 94.99 136.99 94.86 138.26 155.59 138.26"/><polygon class="cls-11" points="156.06 135.22 156.19 133.94 95.45 133.94 95.32 135.22 156.06 135.22"/><polygon class="cls-11" points="156.53 132.18 156.66 130.9 95.92 130.9 95.79 132.18 156.53 132.18"/><polygon class="cls-11" points="157 129.13 157.13 127.86 96.39 127.86 96.26 129.13 157 129.13"/><polygon class="cls-11" points="157.47 126.09 157.6 124.82 96.86 124.82 96.73 126.09 157.47 126.09"/><polygon class="cls-12" points="134.17 65.21 133.85 68.39 160.18 68.39 160.51 65.21 134.17 65.21"/><polygon class="cls-12" points="133.39 70.2 133.07 73.38 159.4 73.38 159.73 70.2 133.39 70.2"/><path class="cls-13" d="M269.55,500.92l16.23-158.48h65.6L335.15,500.92h2.5L354,341.32a1.25,1.25,0,0,0-1.24-1.37H284.65a1.25,1.25,0,0,0-1.24,1.12L267.05,500.92Z" transform="translate(-184.65 -286.2)"/><line class="cls-14" x1="90.51" y1="147.73" x2="158.61" y2="147.73"/><polyline class="cls-15" points="144.85 11.04 144.85 45.71 183.71 45.71"/><polyline class="cls-16" points="90.65 28.83 90.65 49.19 59.43 49.19"/><circle class="cls-17" cx="275.29" cy="315.03" r="11.02" transform="translate(-283.73 -157.91) rotate(-22.34)"/><path class="cls-5" d="M280.12,315.55v-1a.3.3,0,0,0-.31-.3h-1.08a3.72,3.72,0,0,0-.42-1l.76-.76a.3.3,0,0,0,0-.43l-.74-.74a.31.31,0,0,0-.42,0l-.77.77a3.4,3.4,0,0,0-1-.43v-1.08a.3.3,0,0,0-.31-.3h-1a.29.29,0,0,0-.3.3v1.08a3.46,3.46,0,0,0-1,.43l-.76-.77a.32.32,0,0,0-.43,0l-.74.74a.32.32,0,0,0,0,.43l.77.76a3.46,3.46,0,0,0-.43,1h-1.08a.29.29,0,0,0-.3.3v1a.3.3,0,0,0,.3.31h1.08a3.4,3.4,0,0,0,.43,1l-.77.77a.32.32,0,0,0,0,.43l.74.73a.3.3,0,0,0,.43,0l.76-.76a3.44,3.44,0,0,0,1,.42v1.08a.3.3,0,0,0,.3.31h1a.31.31,0,0,0,.31-.31v-1.08a3.38,3.38,0,0,0,1-.42l.77.76a.29.29,0,0,0,.42,0l.74-.74a.29.29,0,0,0,0-.42l-.76-.77a3.38,3.38,0,0,0,.42-1h1.08A.31.31,0,0,0,280.12,315.55Zm-4.4,1.32a1.89,1.89,0,1,1,1.41-1.4A1.85,1.85,0,0,1,275.72,316.87Z" transform="translate(-184.65 -286.2)"/><circle class="cls-13" cx="329.2" cy="297.22" r="11.02" transform="translate(-201.41 288.55) rotate(-80.81)"/><path class="cls-5" d="M333.82,295.11l0,0-.94.46a3.63,3.63,0,0,1,.37,1.61,3.74,3.74,0,1,1-.56-2l.45-.26.15-.76a4.82,4.82,0,1,0,1.05,3A4.69,4.69,0,0,0,333.82,295.11Z" transform="translate(-184.65 -286.2)"/><path class="cls-5" d="M331.18,296.42a1.92,1.92,0,0,1,.18.8,1.89,1.89,0,1,1-.31-1l.9-.53a2.85,2.85,0,1,0,.17.3Z" transform="translate(-184.65 -286.2)"/><path class="cls-5" d="M329.5,297.25l-.06-.1.72-.42a.81.81,0,0,0-.67-.34.83.83,0,0,0-.83.83.84.84,0,0,0,.83.84.85.85,0,0,0,.84-.84.77.77,0,0,0-.08-.34Z" transform="translate(-184.65 -286.2)"/><path class="cls-5" d="M335.83,294.94a.11.11,0,0,0,0-.19l-.79-.3.17-.84a.11.11,0,0,0-.15-.11l-1.3.72-.38.9-3.87,2.13.2.36,3.87-2.12,1,.16Z" transform="translate(-184.65 -286.2)"/><path class="cls-18" d="M310.05,362.29c-.17,0,9.77-1.08,9.77-1.08l-.71-4.52-10.54,1.07Z" transform="translate(-184.65 -286.2)"/><path class="cls-19" d="M310.05,362.29c-.17,0,9.77-1.08,9.77-1.08l-.71-4.52-10.54,1.07Z" transform="translate(-184.65 -286.2)"/><path class="cls-18" d="M312.66,363.61a1.29,1.29,0,0,1-1.08.33,6.1,6.1,0,0,1-1-.17l-.25-.07a.45.45,0,0,1,0,.28h0a.83.83,0,0,1-.44.46,1.73,1.73,0,0,1-.93.08l-.59-.11a3.77,3.77,0,0,1-.57-.18h0l-.36-.14a1,1,0,0,1,.13.41h0a1.34,1.34,0,0,1-.53,1.26,1.37,1.37,0,0,1-1.33.1,1.24,1.24,0,0,1-.4-.29.64.64,0,0,1,0,.28.89.89,0,0,1-.66.52,2,2,0,0,1-1.13-.2l-.6-.23c-2.18-.84-4.62-1.81-5.73-3.76A3.78,3.78,0,0,0,296,361a4.24,4.24,0,0,0-2.25-.76c-1.82-.18-3.86.26-5.35-.45.68-1.48-.57-6.92-.47-6.9a66.22,66.22,0,0,0,7.77.58c1.91.09,3.8.19,5.39.41a12.82,12.82,0,0,1,2.47.55,13.79,13.79,0,0,1,4.72,3.4l2.2,2.15a15.84,15.84,0,0,1,2,2.12,2.39,2.39,0,0,0,.13.21A1.16,1.16,0,0,1,312.66,363.61Z" transform="translate(-184.65 -286.2)"/><path class="cls-19" d="M302.81,366c-2.18-.84-4.62-1.81-5.73-3.76A3.78,3.78,0,0,0,296,361a2.36,2.36,0,0,1,.12-.28c.54,0,1-.37,1.52-.46a1.42,1.42,0,0,1,1.58,1.3,1.22,1.22,0,0,1,1.37,1.35,2.77,2.77,0,0,1,1.93,1.73A3.57,3.57,0,0,1,302.81,366Z" transform="translate(-184.65 -286.2)"/><path class="cls-19" d="M312.62,362.3a6,6,0,0,1-4.52-1.05,11.18,11.18,0,0,1-3.83-4.19,4.67,4.67,0,0,1-2.85.55,2.4,2.4,0,0,1-1.49-3.26,11,11,0,0,1,1.19-.48,12.82,12.82,0,0,1,2.47.55,13.79,13.79,0,0,1,4.72,3.4l2.2,2.15a15.84,15.84,0,0,1,2,2.12A2.39,2.39,0,0,0,312.62,362.3Z" transform="translate(-184.65 -286.2)"/><path class="cls-19" d="M295.73,353.46c-.41,1.54-1.21,4.48-2,6.77-1.82-.18-3.86.26-5.35-.45.68-1.48-.57-6.92-.47-6.9A66.22,66.22,0,0,0,295.73,353.46Z" transform="translate(-184.65 -286.2)"/><path class="cls-18" d="M317.34,358.05l-1.88,1.61a7.35,7.35,0,0,1-1.74,1.21,3,3,0,0,1-.67.2,4.46,4.46,0,0,1-3-.81,14.31,14.31,0,0,1-3.12-2.52,17.84,17.84,0,0,0-2.41-2.09,3,3,0,0,0-2.49.28,2.42,2.42,0,0,1-1.76.31,1.13,1.13,0,0,1-.58-.45,1.38,1.38,0,0,1-.18-.39c-.52-1.9,2.15-3,3.62-3.18,3-.31,5.55,2.68,8.57,2.6l2-.13c1.55-.11,3.5-.28,4-.32C317.88,354.34,316.59,357,317.34,358.05Z" transform="translate(-184.65 -286.2)"/><path class="cls-19" d="M317.34,358.05l-1.88,1.61a7.35,7.35,0,0,1-1.74,1.21c-.12-2.43-.07-4.9,0-6.18,1.55-.11,3.5-.28,4-.32C317.88,354.34,316.59,357,317.34,358.05Z" transform="translate(-184.65 -286.2)"/><path class="cls-18" d="M300.08,365.7a1.64,1.64,0,0,1-1.41.29,1.48,1.48,0,0,1-.58-.37l0,0a1.31,1.31,0,0,1-.37-.75.75.75,0,0,1,.35-.73,1.61,1.61,0,0,0,1-.07c.3-.1.59-.23.89-.3H300a.87.87,0,0,1,.67.1.69.69,0,0,1,.22.43A1.55,1.55,0,0,1,300.08,365.7Z" transform="translate(-184.65 -286.2)"/><path class="cls-19" d="M299.9,363.74a2.19,2.19,0,0,1-.51,1.06,3.7,3.7,0,0,1-1,.67,3.13,3.13,0,0,1-.32.15l0,0a1.31,1.31,0,0,1-.37-.75.75.75,0,0,1,.35-.73,1.61,1.61,0,0,0,1-.07C299.31,363.94,299.6,363.81,299.9,363.74Z" transform="translate(-184.65 -286.2)"/><path class="cls-18" d="M298.69,364.52a1.88,1.88,0,0,1-1.56.32,1.59,1.59,0,0,1-.59-.37l-.08-.08a1.46,1.46,0,0,1-.41-.82.81.81,0,0,1,.39-.8,1.76,1.76,0,0,0,1.06-.09c.31-.1.61-.23.93-.3l.11,0a.91.91,0,0,1,.74.11.69.69,0,0,1,.24.46A1.71,1.71,0,0,1,298.69,364.52Z" transform="translate(-184.65 -286.2)"/><path class="cls-19" d="M298.43,362.38a1.93,1.93,0,0,1-.38.74,4.35,4.35,0,0,1-1.51,1.35l-.08-.08a1.46,1.46,0,0,1-.41-.82.81.81,0,0,1,.39-.8,1.76,1.76,0,0,0,1.06-.09C297.81,362.58,298.11,362.45,298.43,362.38Z" transform="translate(-184.65 -286.2)"/><path class="cls-18" d="M298.45,361.14a2,2,0,0,1-1.19,1.79,2.16,2.16,0,0,1-1.88.18,2,2,0,0,1-.74-.61,1.67,1.67,0,0,1-.38-1c0-.37.17-1,.52-1.11a2.42,2.42,0,0,0,1.31.25,11.5,11.5,0,0,1,1.27-.27,1.09,1.09,0,0,1,.86.22A.88.88,0,0,1,298.45,361.14Z" transform="translate(-184.65 -286.2)"/><path class="cls-20" d="M229.22,404.21H210.64V397.6a4,4,0,0,1,4-4h10.6a4,4,0,0,1,4,4Zm-15.72-2.86h12.86V397.6a1.14,1.14,0,0,0-1.13-1.13h-10.6a1.13,1.13,0,0,0-1.13,1.13Z" transform="translate(-184.65 -286.2)"/><rect class="cls-20" x="10.11" y="113.32" width="50.34" height="32.56" rx="2.94"/><path class="cls-17" d="M375.82,334.51l-9.1,9.71-11.19,11.92-1.31,1.4a5.41,5.41,0,0,1-3.38,1.69l-27.29,3-2.94.32-4.72.53-1.61-10.6,4.52-.54.46-.05,28.35-3.36,12.59-13.42,6.12-6.52,1.51-1.61a5.48,5.48,0,1,1,8,7.49Z" transform="translate(-184.65 -286.2)"/><path class="cls-21" d="M366.72,344.21l-11.18,11.93a186.2,186.2,0,0,1,4.67-21l6.12-6.52Z" transform="translate(-184.65 -286.2)"/><path class="cls-22" d="M366.9,296.55a2.7,2.7,0,0,0-3.18-.11,3.63,3.63,0,0,0-1.5,2.93,5.64,5.64,0,0,0,1,3.2,3.09,3.09,0,0,0,.06,5.15,3.52,3.52,0,0,0,3.22,4.87C365.89,307.24,365.26,301.68,366.9,296.55Z" transform="translate(-184.65 -286.2)"/><path class="cls-18" d="M364.92,486.64s.24,4.6-3.73,6.51c0,0,3.57,3.33,7.55,3.33a14.24,14.24,0,0,0,5.87-1v-8.34Z" transform="translate(-184.65 -286.2)"/><path class="cls-19" d="M364.92,486.64s.24,4.6-3.73,6.51c0,0,3.57,3.33,7.55,3.33a14.24,14.24,0,0,0,5.87-1v-8.34Z" transform="translate(-184.65 -286.2)"/><path class="cls-17" d="M358.5,492.07a11.4,11.4,0,0,0,2.63-.84.61.61,0,0,1,.77.21c3.14,4.48,10,3.94,11.93,3a6.75,6.75,0,0,1,1.46-.54.47.47,0,0,1,.52.51v7.23a.42.42,0,0,1-.39.46H349.37a.42.42,0,0,1-.39-.46v-2.88C349,495.53,352.25,493.27,358.5,492.07Z" transform="translate(-184.65 -286.2)"/><path class="cls-21" d="M358.5,492.07a11.4,11.4,0,0,0,2.63-.84.61.61,0,0,1,.77.21c3.14,4.48,10,3.94,11.93,3a6.75,6.75,0,0,1,1.46-.54.47.47,0,0,1,.52.51v7.23a.42.42,0,0,1-.39.46H349.37a.42.42,0,0,1-.39-.46v-2.88C349,495.53,352.25,493.27,358.5,492.07Z" transform="translate(-184.65 -286.2)"/><rect class="cls-23" x="348.57" y="499.42" width="27.79" height="3.26" rx="0.33" transform="translate(540.28 715.89) rotate(180)"/><polygon class="cls-18" points="49.66 26.65 49.66 42.73 39.77 42.73 39.77 26.53 49.66 26.65"/><path class="cls-19" d="M234.3,312.86V323c-5.16-.7-8.23-2.51-9.89-3.89v-6.41Z" transform="translate(-184.65 -286.2)"/><path class="cls-18" d="M225.88,486.64s-.23,4.6,3.74,6.51c0,0-3.58,3.33-7.55,3.33a14.24,14.24,0,0,1-5.87-1v-8.34Z" transform="translate(-184.65 -286.2)"/><path class="cls-19" d="M225.88,486.64s-.23,4.6,3.74,6.51c0,0-3.58,3.33-7.55,3.33a14.24,14.24,0,0,1-5.87-1v-8.34Z" transform="translate(-184.65 -286.2)"/><path class="cls-13" d="M232.31,492.07a11.48,11.48,0,0,1-2.64-.84.62.62,0,0,0-.77.21c-3.13,4.48-10,3.94-11.92,3a6.75,6.75,0,0,0-1.46-.54.47.47,0,0,0-.52.51v7.23a.42.42,0,0,0,.39.46h26.05a.42.42,0,0,0,.39-.46v-2.88C241.83,495.53,238.55,493.27,232.31,492.07Z" transform="translate(-184.65 -286.2)"/><path class="cls-24" d="M232.31,492.07a11.48,11.48,0,0,1-2.64-.84.62.62,0,0,0-.77.21c-3.13,4.48-10,3.94-11.92,3a6.75,6.75,0,0,0-1.46-.54.47.47,0,0,0-.52.51v7.23a.42.42,0,0,0,.39.46h26.05a.42.42,0,0,0,.39-.46v-2.88C241.83,495.53,238.55,493.27,232.31,492.07Z" transform="translate(-184.65 -286.2)"/><rect class="cls-23" x="29.8" y="213.22" width="27.79" height="3.26" rx="0.33"/><path class="cls-18" d="M241.84,486.64s-.23,4.6,3.74,6.51c0,0-3.58,3.33-7.55,3.33a14.24,14.24,0,0,1-5.87-1v-8.34Z" transform="translate(-184.65 -286.2)"/><path class="cls-13" d="M248.27,492.07a11.48,11.48,0,0,1-2.64-.84.6.6,0,0,0-.76.21c-3.14,4.48-10,3.94-11.93,3a6.75,6.75,0,0,0-1.46-.54.47.47,0,0,0-.52.51v7.23a.42.42,0,0,0,.39.46h26a.42.42,0,0,0,.39-.46v-2.88C257.79,495.53,254.51,493.27,248.27,492.07Z" transform="translate(-184.65 -286.2)"/><rect class="cls-5" x="45.76" y="213.22" width="27.79" height="3.26" rx="0.33"/><path class="cls-13" d="M222.93,389.5l-6.69-31.73,11.06-25.13a5,5,0,0,0-2.85-6.65,5.42,5.42,0,0,0-7,2.7l-11.69,26.56a4.86,4.86,0,0,0-.31,3l7,33.22Z" transform="translate(-184.65 -286.2)"/><path class="cls-24" d="M222.93,389.5l-6.69-31.73,11.06-25.13a5,5,0,0,0-2.85-6.65,5.42,5.42,0,0,0-7,2.7l-11.69,26.56a4.86,4.86,0,0,0-.31,3l7,33.22Z" transform="translate(-184.65 -286.2)"/><path class="cls-13" d="M244.49,387.62v4a9.91,9.91,0,0,1-.25,2.18,10.28,10.28,0,0,1-.89,2.45V491H231V405a1.89,1.89,0,0,0-1.91-1.9,1.91,1.91,0,0,0-1.91,1.9v86H214.77V396.22a10.09,10.09,0,0,1-1.13-4.63v-4Z" transform="translate(-184.65 -286.2)"/><path class="cls-24" d="M244.49,387.62v4a9.91,9.91,0,0,1-.25,2.18c-11.74,0-24.84-2.3-30.6-3.46v-2.69Z" transform="translate(-184.65 -286.2)"/><path class="cls-13" d="M245.38,340.2v48.53H212.74V340.2c0-9.21,6.28-16.74,13.95-16.74h4.74C239.1,323.46,245.38,331,245.38,340.2Z" transform="translate(-184.65 -286.2)"/><path class="cls-18" d="M241.33,301.21v9.08a10.05,10.05,0,0,1-10,10h-.76a10.05,10.05,0,0,1-10-10v-9.08a10,10,0,0,1,10-10h.76a10,10,0,0,1,10,9.56C241.32,300.9,241.33,301.05,241.33,301.21Z" transform="translate(-184.65 -286.2)"/><path class="cls-19" d="M241.31,300.75c-9.47,3.65-18.3-1.93-20.1-3.18a10.07,10.07,0,0,1,9.34-6.38h.76A10,10,0,0,1,241.31,300.75Z" transform="translate(-184.65 -286.2)"/><path class="cls-18" d="M380.88,486.64s.24,4.6-3.73,6.51c0,0,3.58,3.33,7.55,3.33a14.24,14.24,0,0,0,5.87-1v-8.34Z" transform="translate(-184.65 -286.2)"/><path class="cls-17" d="M374.46,492.07a11.64,11.64,0,0,0,2.64-.84.6.6,0,0,1,.76.21c3.14,4.48,10,3.94,11.93,3a6.75,6.75,0,0,1,1.46-.54.47.47,0,0,1,.52.51v7.23a.42.42,0,0,1-.39.46H365.33a.42.42,0,0,1-.39-.46v-2.88C364.94,495.53,368.21,493.27,374.46,492.07Z" transform="translate(-184.65 -286.2)"/><rect class="cls-5" x="364.53" y="499.42" width="27.79" height="3.26" rx="0.33" transform="translate(572.2 715.89) rotate(180)"/><path class="cls-17" d="M393.13,387.62v4a9.33,9.33,0,0,1-.22,2.05,9.91,9.91,0,0,1-.91,2.58v94.62H379.62V405a1.91,1.91,0,0,0-1.91-1.9,1.89,1.89,0,0,0-1.91,1.9v85.81H363.42V396.22a10.28,10.28,0,0,1-.89-2.45,9.91,9.91,0,0,1-.25-2.18v-4Z" transform="translate(-184.65 -286.2)"/><path class="cls-21" d="M393.13,387.62v4a9.33,9.33,0,0,1-.22,2.05c-10.91.07-25.49-2.78-30.63-3.87v-2.15Z" transform="translate(-184.65 -286.2)"/><path class="cls-18" d="M396,399.63c.22,1-.21,1.78-.79,1.92a1.44,1.44,0,0,1-.61,0,1.74,1.74,0,0,1-.86,1,1.52,1.52,0,0,1-1.3.14l-.15.08-.08,0c-.63,1.26-1.83.94-2.6.56h-.09c-.28,0-.55.09-.82.12a2.59,2.59,0,0,1-2.24-1,3.2,3.2,0,0,1-.65-2.39,4.87,4.87,0,0,0,.13-1.77,4.46,4.46,0,0,0-.34-.74l-.06-.14c-.56-1.28.06-2.76.89-3.88a4.81,4.81,0,0,1,2-1.71,2.81,2.81,0,0,1,.69-.18l.36-1.65.66-3,6.56,1-1.11,4.52-.19.79S397.92,394.82,396,399.63Z" transform="translate(-184.65 -286.2)"/><path class="cls-19" d="M386.56,395.91a12.32,12.32,0,0,0-.65,2.42,4.46,4.46,0,0,0-.34-.74c.12-.27.23-.54.32-.76C386.25,396,386.56,395.91,386.56,395.91Z" transform="translate(-184.65 -286.2)"/><path class="cls-19" d="M396.7,388l-1.11,4.52a54.73,54.73,0,0,1-6.11-2.51l.66-3Z" transform="translate(-184.65 -286.2)"/><path class="cls-5" d="M394,340.2V388H363.22l-.45-47.81c0-6.62,3.24-12.36,7.9-15.08.46-.27-.44-.51.05-.72a11.85,11.85,0,0,1,4.62-.94h4.73a11,11,0,0,1,2.08.19C388.85,324.86,394,331.84,394,340.2Z" transform="translate(-184.65 -286.2)"/><path class="cls-25" d="M394,340.2V388H378.82V323.46h1.25a11,11,0,0,1,2.08.19C388.85,324.86,394,331.84,394,340.2Z" transform="translate(-184.65 -286.2)"/><path class="cls-17" d="M370.72,324.4v64.33h-9.33V340.2c0-6.51,3.13-12.18,7.68-14.94l.22-.14A12.75,12.75,0,0,1,370.72,324.4Z" transform="translate(-184.65 -286.2)"/><polygon class="cls-21" points="186.07 38.71 186.07 83.74 179.33 63.3 182.9 50.91 180.44 44.8 185.04 39 186.07 38.71"/><path class="cls-17" d="M394,340.2v48.53H382.15V323.65a11.33,11.33,0,0,1,2.07.57c.39.15.78.32,1.16.51,4.29,2.12,7.51,6.75,8.4,12.34A20,20,0,0,1,394,340.2Z" transform="translate(-184.65 -286.2)"/><path class="cls-21" d="M394,340.2v44.45l-.57,4.08h-7.2l5.66-29-8-22.63,5.16-7.95C389.23,330.19,394,339.13,394,340.2Z" transform="translate(-184.65 -286.2)"/><path class="cls-17" d="M403,360.27l-4.56,26.28-.32,1.85-.49,2.83-9-2,.67-3.85.1-.59,4.33-25-7.46-26.26c-1-2.66-1.61-7.66,1-7.88a24.86,24.86,0,0,1,10,12l5.42,19.59A5.82,5.82,0,0,1,403,360.27Z" transform="translate(-184.65 -286.2)"/><path class="cls-21" d="M391.23,344.66,382.15,371V323.65a11.33,11.33,0,0,1,2.07.57c.39.15.78.32,1.16.51l5.49,6.47-4.11,7.26Z" transform="translate(-184.65 -286.2)"/><path class="cls-18" d="M381.56,312.74v11.15a5,5,0,0,1-5,5h-2.38a2.46,2.46,0,0,1-2.47-2.46V312.86Z" transform="translate(-184.65 -286.2)"/><path class="cls-19" d="M381.56,312.74v10.39a20.13,20.13,0,0,1-9.89-1.88v-8.39Z" transform="translate(-184.65 -286.2)"/><path class="cls-18" d="M385.21,301.36v9.09a10.05,10.05,0,0,1-10,10h-.76a10,10,0,0,1-10-10v-9.09c0-.15,0-.3,0-.45a10.72,10.72,0,0,1,.14-1.27,10.05,10.05,0,0,1,9.87-8.3h.76a10.05,10.05,0,0,1,9.33,6.39,9.09,9.09,0,0,1,.46,1.48A10.19,10.19,0,0,1,385.21,301.36Z" transform="translate(-184.65 -286.2)"/><path class="cls-19" d="M385.21,301.36v1.2a27.92,27.92,0,0,1-5.52,1.12c-8.68.94-13.11-1.94-15.13-4a10.05,10.05,0,0,1,9.87-8.3h.76a10.05,10.05,0,0,1,9.33,6.39,9.09,9.09,0,0,1,.46,1.48A10.19,10.19,0,0,1,385.21,301.36Z" transform="translate(-184.65 -286.2)"/><path class="cls-22" d="M392.89,301.5a3.93,3.93,0,0,0-2.27-2.93,3.93,3.93,0,0,0-2.5-5.17,4,4,0,0,0-5.49-4.29,2.77,2.77,0,0,0-1.32-2.14,5.47,5.47,0,0,0-2.48-.74,4.41,4.41,0,0,0-3.63,1,5.13,5.13,0,0,0-7.29,1.31,4,4,0,0,0-4.49,5.69l-.05,0a1.88,1.88,0,0,0-.54,2.5,2.69,2.69,0,0,0,2,1.31c.9,0,1.61-.72,2.35-.06.33.28.5.86.85,1.18a4.21,4.21,0,0,0,1.39.84c1.52.59,3.59.78,4.62-.71a3.37,3.37,0,0,0,4.64,1.48l.24,4.38a2.2,2.2,0,0,1,2.92-.72,2.66,2.66,0,0,1,1.15,2.9,3.38,3.38,0,0,1-2.26,2.28c-.69.23,1.43,4.19,1.69,4.54.84,1.09,1.55,2.3,3.14,2.19a4.58,4.58,0,0,0,2.66-1.29,3.34,3.34,0,0,0,1.28-2.76,3.72,3.72,0,0,0,2.72-3.14,6.32,6.32,0,0,0-1.06-4.2,2,2,0,0,0,1.66-1.3A3.59,3.59,0,0,0,392.89,301.5Z" transform="translate(-184.65 -286.2)"/><path class="cls-20" d="M227.12,287.65c-4.29.51-9.7,2.57-11.22,7a2.78,2.78,0,0,0,.12,2.59l.17.17a3.68,3.68,0,0,0-1.29,1.42,6.79,6.79,0,0,0-.63,2.75c-.17,3,.82,5.74,2,8.47a12.24,12.24,0,0,0,3.66,4.83,5.94,5.94,0,0,0,1.64,1.08c2.84-1.06,5.62-3.74,5.7-6.51a2.08,2.08,0,0,1-2.6-.3,2.6,2.6,0,0,1-.53-2.48,2.56,2.56,0,0,1,.8-1.32,2.44,2.44,0,0,1,2.79-.1c.25.28.43.51.43.51V300a14,14,0,0,0,5.24-.47,39.55,39.55,0,0,0,5.27-2,7.52,7.52,0,0,0,3.28-2.11C238.8,290,233.39,286.91,227.12,287.65Z" transform="translate(-184.65 -286.2)"/><path class="cls-17" d="M370.72,324.4V368L366,345.73l2.85-9.41-2.62-4.88,2.88-6.18.22-.14A12.75,12.75,0,0,1,370.72,324.4Z" transform="translate(-184.65 -286.2)"/><path class="cls-17" d="M384.78,335.84l3.33,5.72-6,24.75V323.65a11.33,11.33,0,0,1,2.07.57l4,6.62Z" transform="translate(-184.65 -286.2)"/><g class="cls-26"><path class="cls-27" d="M308.6,362.44l1.55,1.37.11.17a.46.46,0,0,0,0-.28l.26.07-.14-.21-1.57-1.39a.18.18,0,0,0-.24.27Z" transform="translate(-184.65 -286.2)"/><path class="cls-27" d="M306.06,363.12l1.18,1.1.25.28a1,1,0,0,0-.13-.41l.36.14-.22-.26-1.2-1.11a.16.16,0,0,0-.24,0A.18.18,0,0,0,306.06,363.12Z" transform="translate(-184.65 -286.2)"/><path class="cls-27" d="M304.13,364.35l1,1.34.11.17a.64.64,0,0,0,0-.28,1.31,1.31,0,0,0,.4.3l-.25-.39-1-1.35a.18.18,0,0,0-.29.21Z" transform="translate(-184.65 -286.2)"/></g><path class="cls-24" d="M245.38,342.71v13.64c-5.88-7.34-14.46-18.44-15.84-22.29-2.15-6,2.85-7.15,2.85-7.15Z" transform="translate(-184.65 -286.2)"/><path class="cls-13" d="M293.5,352.16,292.22,363l-4.66-.55-.47-.06-.23,0-2.87-.33-29.25-3.48a5.48,5.48,0,0,1-3.36-1.74l-20.49-22.39a5.48,5.48,0,0,1,8.09-7.4L258.1,348l29,3.43,1.1.13h0l.47.06Z" transform="translate(-184.65 -286.2)"/><polygon class="cls-24" points="103.53 65.33 102.21 76.2 99.35 75.86 102.44 65.19 103.53 65.33"/><polygon class="cls-13" points="37.92 38.5 39.17 35.35 47.99 35.76 51.74 38.32 37.92 38.5"/><path class="cls-28" d="M289.74,361a.78.78,0,1,1-.78-.78A.78.78,0,0,1,289.74,361Z" transform="translate(-184.65 -286.2)"/><polygon class="cls-21" points="138.91 76.06 135.97 76.38 134.16 65.77 134.62 65.72 138.91 76.06"/><polygon class="cls-21" points="213.76 100.34 213.44 102.19 204.65 99.19 204.75 98.6 213.76 100.34"/><path class="cls-21" d="M397.1,389.29a.56.56,0,1,1-.56-.56A.56.56,0,0,1,397.1,389.29Z" transform="translate(-184.65 -286.2)"/><path class="cls-21" d="M318.52,361a.61.61,0,1,1-.6-.6A.6.6,0,0,1,318.52,361Z" transform="translate(-184.65 -286.2)"/></g></g></svg>