<svg id="Layer_1" data-name="Layer 1" xmlns="http://www.w3.org/2000/svg" viewBox="0 0 57.37 48.65"><defs><style>.cls-1{fill:#231f20;fill-rule:evenodd;}</style></defs><path class="cls-1" d="M111,248.68a3.15,3.15,0,1,1,3.67-3.11,3.42,3.42,0,0,1-3.67,3.11m-36.52,8.15c0,13.44,12.84,24.33,28.68,24.33s28.68-10.89,28.68-24.33S119,232.51,103.2,232.51,74.52,243.4,74.52,256.83ZM104,274.27V247.18c4.32,6.35,12.7,4.49,19-.89l-9.53,14Zm-6.1-31.78a3.7,3.7,0,1,1-3.65-3.09A3.41,3.41,0,0,1,97.9,242.49Zm-5,14.72-9.53-14c6.35,5.39,14.73,7.24,19.05.89v27.1Z" transform="translate(-74.52 -232.51)"/></svg>