<?xml version="1.0" encoding="utf-8"?>
<!-- Generator: Adobe Illustrator 27.5.0, SVG Export Plug-In . SVG Version: 6.00 Build 0)  -->
<svg version="1.1" xmlns="http://www.w3.org/2000/svg" xmlns:xlink="http://www.w3.org/1999/xlink" x="0px" y="0px"
	 viewBox="0 0 750 500" style="enable-background:new 0 0 750 500;" xml:space="preserve">
<g id="BACKGROUND">
	<rect x="125" style="fill-rule:evenodd;clip-rule:evenodd;fill:#FFFFFF;" width="500" height="500"/>
</g>
<g id="OBJECTS">
	<g>
		<path style="fill-rule:evenodd;clip-rule:evenodd;fill:#C9D7EE;" d="M653.089,313.082c-18.736,0-34.065,15.33-34.065,34.066l0,0
			l0,0c0,34.182-27.969,62.151-62.152,62.151h-3.431l0,0H211.548h-72.549c-44.408,0-80.743-36.333-80.743-80.739l0,0
			c0-44.407,36.335-80.741,80.743-80.741h2.122c8.912,0,16.204-7.291,16.204-16.203l0,0c0-8.912-7.292-16.204-16.204-16.204h-8.912
			c-21.665,0-39.389-17.725-39.389-39.388l0,0c0-21.641,17.684-39.351,39.314-39.391c0.025,0,38.409,0,38.434,0
			c18.735,0,34.064-15.328,34.064-34.063l0,0v-0.002c0-34.184,27.968-62.152,62.152-62.152c60.658,0,256.958,0,317.613,0
			c44.407,0,80.74,36.335,80.74,80.74l0,0c0,44.406-36.333,80.741-80.74,80.741l0,0c-8.912,0-16.204,7.293-16.204,16.203l0,0
			c0,8.91,7.292,16.203,16.204,16.203h68.692C704.628,234.305,704.63,313.082,653.089,313.082z"/>
		<path style="fill-rule:evenodd;clip-rule:evenodd;fill:#A0C0D5;" d="M649.384,307.376c16.532,0,30.017-13.482,30.017-30.014
			c0-16.532-13.484-30.015-30.017-30.015c-16.531,0-30.013,13.482-30.013,30.015C619.371,293.894,632.852,307.376,649.384,307.376z"
			/>
		<g>
			<g>
				<path style="fill-rule:evenodd;clip-rule:evenodd;fill:#63A9BA;" d="M143.541,264.758c10.762-23.646,31.543-6.156,37.854,16.698
					c5.982,21.668,14.139,100.521,28.571,129.686l-6.948,2.532C171.826,380.89,129.764,295.027,143.541,264.758z"/>
				<path style="fill-rule:evenodd;clip-rule:evenodd;fill:#80B9C9;" d="M205.572,412.742
					c-38.915-55.402-48.887-147.938-48.923-148.254c-0.064-0.572,0.35-1.091,0.924-1.155c0.573-0.064,1.092,0.351,1.155,0.925
					c0.035,0.313,10.017,92.956,48.854,147.751L205.572,412.742z"/>
			</g>
			<g>
				<path style="fill-rule:evenodd;clip-rule:evenodd;fill:#3A7F80;" d="M132.305,339.6c-20.249-1.27-15.832,19.477-2.401,32.221
					c9.088,8.624,37.836,28.709,58.937,47.015l14.544-5.297C185.773,380.634,153.235,340.912,132.305,339.6z"/>
				<path style="fill-rule:evenodd;clip-rule:evenodd;fill:#51A5A5;" d="M198.192,415.43c-27.719-37.542-70.716-66.777-70.89-66.895
					c-0.372-0.255-0.879-0.161-1.135,0.211c-0.255,0.373-0.161,0.88,0.211,1.137c0.172,0.117,42.718,29.048,70.233,66.121
					L198.192,415.43z"/>
			</g>
		</g>
		<path style="fill-rule:evenodd;clip-rule:evenodd;fill:#020516;" d="M105.368,406.163h560.696c6.526,0,11.871,5.346,11.871,11.872
			l0,0c0,6.526-5.343,11.87-11.871,11.87h-40.053c-3.627,0-6.594,2.969-6.594,6.595l0,0c0,3.627,2.967,6.595,6.594,6.595h14.654
			c4.532,0,8.242,3.712,8.242,8.244l0,0c0,4.532-3.708,8.244-8.242,8.244H132.077c-4.534,0-8.244-3.71-8.244-8.244l0,0
			c0-4.533,3.71-8.244,8.244-8.244h11.542c3.626,0,6.593-2.967,6.593-6.595l0,0c0-3.626-2.967-6.595-6.593-6.595h-38.251
			c-6.528,0-11.871-5.343-11.871-11.87l0,0C93.498,411.505,98.843,406.163,105.368,406.163L105.368,406.163z M111.551,459.583
			c4.353,0,7.913-3.563,7.913-7.914v-0.659c0-4.353-3.56-7.915-7.913-7.915l0,0c-4.353,0-7.914,3.562-7.914,7.915v0.659
			C103.637,456.022,107.198,459.583,111.551,459.583L111.551,459.583z"/>
		<g>
			<g>
				<path style="fill-rule:evenodd;clip-rule:evenodd;fill:#EC6D3B;" d="M420.362,66.897h-59.928c-0.916,0-1.665,0.771-1.665,1.715
					v38.051c0,0.944,0.749,1.716,1.665,1.716h59.928c0.916,0,1.664-0.771,1.664-1.716V68.612
					C422.026,67.669,421.278,66.897,420.362,66.897z"/>
				<path style="fill-rule:evenodd;clip-rule:evenodd;fill:#EC6D3B;" d="M420.362,66.897h-59.928c-0.914,0-1.665,0.771-1.665,1.715
					v1.461l27.628,26.288c4.464,4.246,3.145,4.621,7.496,0.48l28.132-26.769v-1.461C422.026,67.669,421.278,66.897,420.362,66.897z"
					/>
				<path style="fill-rule:evenodd;clip-rule:evenodd;fill:#EC6D3B;" d="M358.77,105.019v1.645c0,0.944,0.751,1.716,1.665,1.716
					h59.928c0.916,0,1.664-0.771,1.664-1.716v-1.645L393.679,80.29c-4.082-3.562-2.847-3.238-7.032,0.413L358.77,105.019z"/>
				<path style="fill-rule:evenodd;clip-rule:evenodd;fill:#F4A63D;" d="M358.81,107.033c0.164,0.767,0.832,1.346,1.624,1.346
					h59.928c0.794,0,1.46-0.579,1.626-1.346l-28.627-24.971c-3.688-3.218-2.569-2.926-6.354,0.374L358.81,107.033z"/>
				<path style="fill-rule:evenodd;clip-rule:evenodd;fill:#EC6D3B;" d="M401.743,89.374l-8.382-7.312
					c-3.688-3.218-2.569-2.926-6.354,0.374l-7.952,6.938l7.343,6.987c4.464,4.246,3.145,4.621,7.496,0.48L401.743,89.374z"/>
				<path style="fill-rule:evenodd;clip-rule:evenodd;fill:#F4A63D;" d="M420.362,66.897h-59.928c-0.549,0-1.042,0.279-1.345,0.707
					l27.918,26.562c3.784,3.6,2.666,3.918,6.354,0.407l28.346-26.969C421.403,67.177,420.913,66.897,420.362,66.897z"/>
			</g>
			<path style="fill-rule:evenodd;clip-rule:evenodd;fill:#E62952;" d="M420.315,57.813c6.118,0,11.077,4.959,11.077,11.076
				c0,6.118-4.959,11.077-11.077,11.077c-6.118,0-11.076-4.959-11.076-11.077C409.239,62.772,414.197,57.813,420.315,57.813z"/>
			<path style="fill-rule:evenodd;clip-rule:evenodd;fill:#FFFFFF;" d="M422.144,75.098h-3.107v-8.746
				c-1.135,1.066-2.471,1.856-4.015,2.367v-2.836c0.814-0.265,1.694-0.767,2.642-1.512c0.955-0.74,1.604-1.606,1.959-2.594h2.521
				V75.098z"/>
		</g>
		<path style="fill-rule:evenodd;clip-rule:evenodd;" d="M471.859,213.291c1.544,0,1.647-2.328,0.057-2.429
			c-0.783-0.014-1.439-0.07-2.207-0.24c-1.437-0.27-2.052,1.649-0.786,2.282c0.087,0.039,0.174,0.075,0.268,0.093
			C470.072,213.19,470.958,213.291,471.859,213.291L471.859,213.291z M433.519,91.506c-1.544,0-1.647,2.329-0.054,2.428l2.484,0.002
			c1.544,0,1.647-2.329,0.054-2.43H433.519L433.519,91.506z M443.239,91.506c-1.544,0-1.647,2.329-0.055,2.428l2.484,0.002
			c1.543,0,1.648-2.329,0.055-2.43H443.239L443.239,91.506z M453.265,92c-0.201-0.067-0.415-0.063-0.626-0.021
			c-1.209,0.323-1.266,1.949-0.07,2.348c0.703,0.206,1.346,0.483,1.989,0.834c1.227,0.701,2.561-1.002,1.319-2.036
			C455.162,92.664,454.085,92.237,453.265,92L453.265,92z M461.073,98.937c-0.52-1.302-2.604-0.761-2.305,0.736
			c0.018,0.077,0.038,0.139,0.068,0.214c0.284,0.672,0.492,1.34,0.628,2.058c0.263,1.398,2.314,1.305,2.411-0.16
			c0-0.098-0.002-0.176-0.019-0.268C461.616,100.55,461.472,99.874,461.073,98.937L461.073,98.937z M462.06,109.01
			c0-1.543-2.329-1.648-2.43-0.055v2.484c0,1.544,2.329,1.647,2.428,0.056L462.06,109.01L462.06,109.01z M462.06,118.729
			c0-1.544-2.329-1.647-2.43-0.056v2.484c0,1.544,2.329,1.647,2.428,0.056L462.06,118.729L462.06,118.729z M462.06,128.448
			c0-1.544-2.329-1.647-2.43-0.056v2.486c0,1.544,2.329,1.646,2.428,0.054L462.06,128.448L462.06,128.448z M462.06,138.169
			c0-1.544-2.329-1.647-2.43-0.055v2.484c0,1.543,2.329,1.647,2.428,0.055L462.06,138.169L462.06,138.169z M462.06,147.888
			c0-1.543-2.329-1.647-2.43-0.055v2.484c0,1.544,2.329,1.647,2.428,0.056L462.06,147.888L462.06,147.888z M462.06,157.607
			c0-1.544-2.329-1.647-2.43-0.054v2.484c0,1.544,2.329,1.645,2.428,0.054L462.06,157.607L462.06,157.607z M462.06,167.328
			c0-1.544-2.329-1.647-2.43-0.056v2.484c0,1.544,2.329,1.647,2.428,0.056L462.06,167.328L462.06,167.328z M462.06,177.047
			c0-1.544-2.329-1.648-2.43-0.055v2.484c0,1.543,2.329,1.647,2.428,0.055L462.06,177.047L462.06,177.047z M462.06,186.766
			c0-1.543-2.329-1.647-2.43-0.053v2.484c0,1.544,2.329,1.646,2.428,0.055L462.06,186.766L462.06,186.766z M462.06,196.486
			c0-1.543-2.329-1.647-2.43-0.055v2.484c0,1.544,2.329,1.648,2.428,0.056L462.06,196.486L462.06,196.486z M463.113,205.464
			c-0.121-0.242-0.318-0.422-0.553-0.539c-1.068-0.492-2.13,0.608-1.61,1.647c0.408,0.799,0.902,1.561,1.475,2.25
			c0.425,0.51,1.163,0.583,1.68,0.185c0.547-0.42,0.626-1.214,0.19-1.734C463.84,206.727,463.435,206.099,463.113,205.464z"/>
		<g>
			<path style="fill-rule:evenodd;clip-rule:evenodd;fill:#E62952;" d="M148.676,147.27h51.73c4.878,0,8.87,3.991,8.87,8.868v36.578
				v2.705v23.284c0,0.41-0.234,0.758-0.613,0.914c-0.377,0.157-0.79,0.075-1.078-0.215l-15.114-15.113h-43.795
				c-4.878,0-8.87-3.991-8.87-8.87v-39.283C139.806,151.262,143.797,147.27,148.676,147.27z"/>
			<path style="fill-rule:evenodd;clip-rule:evenodd;fill:#FFFFFF;" d="M174.54,155.491c5.327,0,10.389,2.098,14.156,5.864
				c3.765,3.766,5.863,8.827,5.863,14.154c0,5.328-2.098,10.389-5.863,14.154c-3.767,3.768-8.829,5.863-14.156,5.863
				c-5.326,0-10.389-2.096-14.154-5.863c-3.767-3.766-5.863-8.826-5.863-14.154c0-5.327,2.096-10.389,5.863-14.154
				C164.151,157.589,169.214,155.491,174.54,155.491L174.54,155.491z M192.391,176.578h-8.168c-0.054,2.172-0.271,4.355-0.683,6.489
				c2.049,0.48,4.135,1.186,5.996,2.19C191.23,182.657,192.208,179.677,192.391,176.578L192.391,176.578z M182.086,176.578h-6.476
				v5.5c1.954,0.047,3.914,0.228,5.84,0.561C181.831,180.645,182.032,178.607,182.086,176.578L182.086,176.578z M173.474,176.578
				h-6.476c0.05,2.029,0.251,4.068,0.634,6.061c1.927-0.333,3.886-0.514,5.842-0.561V176.578L173.474,176.578z M164.861,176.578
				h-8.172c0.184,3.099,1.162,6.079,2.858,8.68c1.86-1.005,3.945-1.711,5.994-2.19C165.13,180.933,164.915,178.75,164.861,176.578
				L164.861,176.578z M156.689,174.441h8.172c0.044-1.843,0.208-3.691,0.506-5.512c-2.156-0.521-4.373-1.294-6.289-2.41
				C157.67,168.94,156.855,171.645,156.689,174.441L156.689,174.441z M167.458,169.369c-0.27,1.676-0.419,3.375-0.46,5.072h6.476
				v-4.48C171.46,169.911,169.442,169.722,167.458,169.369L167.458,169.369z M181.624,169.369c-1.982,0.353-4.001,0.542-6.014,0.593
				v4.48h6.476C182.04,172.744,181.892,171.045,181.624,169.369L181.624,169.369z M184.22,174.441h8.17
				c-0.165-2.796-0.979-5.501-2.389-7.922c-1.922,1.118-4.135,1.89-6.288,2.41C184.011,170.75,184.175,172.599,184.22,174.441
				L184.22,174.441z M175.61,157.821v10.004c1.875-0.049,3.76-0.226,5.609-0.553c-0.367-1.61-0.868-3.22-1.547-4.72
				C178.912,160.886,177.508,158.512,175.61,157.821L175.61,157.821z M175.61,184.215v8.983c1.898-0.691,3.302-3.061,4.062-4.731
				c0.546-1.198,0.971-2.466,1.306-3.743C179.206,184.424,177.405,184.262,175.61,184.215L175.61,184.215z M173.474,193.198v-8.983
				c-1.798,0.047-3.6,0.209-5.371,0.509c0.335,1.277,0.762,2.545,1.309,3.743C170.17,190.137,171.571,192.509,173.474,193.198
				L173.474,193.198z M173.474,167.825v-10.004c-1.902,0.69-3.304,3.063-4.063,4.731c-0.682,1.499-1.181,3.109-1.549,4.72
				C169.711,167.6,171.595,167.776,173.474,167.825L173.474,167.825z M160.265,164.738c1.688,0.961,3.63,1.634,5.51,2.094
				c0.4-1.763,0.947-3.522,1.697-5.165c0.516-1.139,1.169-2.297,1.976-3.303c-2.845,0.844-5.441,2.391-7.553,4.502
				C161.31,163.452,160.766,164.078,160.265,164.738L160.265,164.738z M183.305,166.832c1.882-0.46,3.824-1.133,5.512-2.094
				c-0.501-0.66-1.045-1.286-1.631-1.872c-2.113-2.111-4.708-3.658-7.553-4.502c0.807,1.006,1.458,2.164,1.978,3.303
				C182.357,163.31,182.906,165.069,183.305,166.832L183.305,166.832z M188.249,186.992c-1.617-0.837-3.413-1.432-5.177-1.844
				c-0.373,1.436-0.849,2.854-1.461,4.203c-0.519,1.138-1.171,2.297-1.978,3.305c2.845-0.844,5.44-2.391,7.553-4.502
				C187.556,187.782,187.912,187.395,188.249,186.992L188.249,186.992z M166.01,185.148c-1.765,0.41-3.56,1.007-5.177,1.844
				c0.337,0.403,0.692,0.79,1.063,1.162c2.111,2.111,4.708,3.658,7.553,4.502c-0.807-1.008-1.46-2.167-1.979-3.305
				C166.857,188.003,166.381,186.584,166.01,185.148z"/>
		</g>
		<path style="fill-rule:evenodd;clip-rule:evenodd;fill:#AFCADC;" d="M661.34,365.192L661.34,365.192L661.34,365.192z
			 M656.87,348.175c-1.556-1.557-3.705-2.52-6.08-2.52c-2.374,0-4.523,0.963-6.079,2.52c-1.555,1.556-2.518,3.705-2.518,6.077
			c0,2.376,0.963,4.524,2.518,6.081c1.556,1.556,3.705,2.519,6.079,2.519c2.375,0,4.525-0.963,6.08-2.519
			c1.555-1.557,2.518-3.705,2.518-6.081C659.388,351.88,658.425,349.73,656.87,348.175L656.87,348.175z M655.013,339.652
			c1.192,0.344,2.32,0.829,3.369,1.436c1.076,0.621,2.069,1.371,2.956,2.229c0.175,0.165,0.433,0.19,0.63,0.075l3.995-2.308
			l0.023-0.012c0.228-0.124,0.488-0.147,0.727-0.083c0.247,0.064,0.467,0.224,0.602,0.46l0.017,0.026l2.812,4.867
			c0.135,0.236,0.162,0.506,0.095,0.754c-0.065,0.244-0.224,0.465-0.458,0.601l-0.027,0.017l-3.963,2.289
			c-0.207,0.119-0.303,0.36-0.249,0.581l0,0c0.145,0.59,0.258,1.197,0.333,1.816c0.073,0.606,0.112,1.224,0.112,1.852
			c0,0.63-0.039,1.249-0.112,1.853c-0.075,0.621-0.188,1.228-0.333,1.816c-0.061,0.245,0.06,0.492,0.277,0.6l3.962,2.287l0,0
			c0.234,0.136,0.393,0.356,0.458,0.603c0.067,0.246,0.04,0.518-0.095,0.752l-2.828,4.896l0,0c-0.136,0.234-0.355,0.393-0.602,0.459
			c-0.246,0.066-0.517,0.04-0.751-0.096l-0.028-0.017l-3.967-2.29c-0.208-0.119-0.464-0.082-0.63,0.077
			c-0.887,0.855-1.878,1.605-2.956,2.227c-1.055,0.611-2.191,1.098-3.391,1.441c-0.232,0.066-0.384,0.277-0.384,0.509v4.607
			c0,0.271-0.113,0.52-0.291,0.698c-0.181,0.18-0.427,0.291-0.698,0.291h-5.654c-0.271,0-0.519-0.111-0.699-0.291
			c-0.178-0.179-0.29-0.427-0.29-0.698v-4.607c0-0.251-0.174-0.46-0.406-0.514c-1.192-0.345-2.321-0.829-3.369-1.437
			c-1.076-0.621-2.069-1.371-2.957-2.227c-0.181-0.175-0.455-0.194-0.656-0.061l-3.968,2.29c-0.234,0.136-0.506,0.162-0.75,0.096
			c-0.246-0.066-0.467-0.225-0.603-0.459l-0.017-0.026l-2.813-4.871l0.003-0.001c-0.138-0.233-0.164-0.504-0.097-0.749
			c0.064-0.247,0.224-0.467,0.457-0.603l3.991-2.304c0.209-0.12,0.303-0.36,0.249-0.583l0,0c-0.146-0.589-0.258-1.195-0.333-1.816
			c-0.073-0.604-0.112-1.224-0.112-1.853c0-0.628,0.039-1.247,0.112-1.852c0.075-0.621,0.188-1.227,0.333-1.816
			c0.061-0.244-0.06-0.49-0.277-0.598l-3.963-2.289c-0.233-0.134-0.393-0.354-0.457-0.601c-0.067-0.246-0.041-0.516,0.097-0.75
			l0.014-0.03l2.813-4.869v0.002c0.136-0.236,0.357-0.395,0.603-0.46c0.244-0.065,0.516-0.041,0.75,0.095l0,0l3.995,2.308
			c0.213,0.124,0.476,0.08,0.64-0.087c0.887-0.853,1.875-1.6,2.946-2.217c1.055-0.611,2.191-1.099,3.391-1.441
			c0.232-0.067,0.384-0.278,0.385-0.508v-4.609c0-0.271,0.112-0.517,0.29-0.698c0.181-0.179,0.429-0.289,0.699-0.289h5.654
			c0.271,0,0.518,0.11,0.698,0.289c0.178,0.182,0.291,0.428,0.291,0.698v4.609C654.607,339.389,654.78,339.598,655.013,339.652z"/>
		<g>
			<path style="fill-rule:evenodd;clip-rule:evenodd;fill:#FFFFFF;" d="M645.634,303.947c16.531,0,30.016-13.482,30.016-30.014
				c0-16.532-13.484-30.015-30.016-30.015c-16.531,0-30.015,13.482-30.015,30.015C615.619,290.465,629.102,303.947,645.634,303.947z
				"/>
			<path style="fill-rule:evenodd;clip-rule:evenodd;fill:#E62952;" d="M645.634,281.749c1.336,0,2.606,0.525,3.551,1.47
				c0.946,0.944,1.472,2.217,1.472,3.553c0,1.334-0.527,2.606-1.472,3.551l-0.005,0.004c-0.94,0.942-2.213,1.466-3.546,1.466
				c-1.336,0-2.608-0.525-3.553-1.47c-0.942-0.945-1.47-2.217-1.47-3.551c0-1.336,0.527-2.607,1.47-3.553
				C643.025,282.274,644.298,281.749,645.634,281.749L645.634,281.749z M626.453,268.844c-0.837,0.893-2.24,0.944-3.138,0.11
				c-0.896-0.834-0.947-2.242-0.11-3.138c2.873-3.075,6.357-5.535,10.217-7.211c3.86-1.676,8.006-2.531,12.212-2.531
				c4.206,0,8.352,0.855,12.212,2.531c3.859,1.676,7.344,4.136,10.217,7.211c0.837,0.896,0.785,2.304-0.111,3.138
				c-0.897,0.834-2.302,0.783-3.137-0.11c-2.455-2.629-5.432-4.737-8.729-6.17c-3.302-1.434-6.852-2.155-10.451-2.155
				s-7.148,0.722-10.451,2.155C631.885,264.106,628.908,266.215,626.453,268.844L626.453,268.844z M632.292,274.298
				c1.707-1.828,3.775-3.293,6.072-4.291c2.297-0.996,4.767-1.497,7.27-1.497c2.503,0,4.973,0.501,7.269,1.497
				c2.297,0.998,4.365,2.463,6.072,4.291c0.836,0.895,2.24,0.946,3.137,0.112c0.896-0.835,0.949-2.241,0.111-3.139
				c-2.124-2.274-4.703-4.094-7.559-5.333c-2.854-1.24-5.921-1.875-9.031-1.875c-3.111,0-6.178,0.635-9.031,1.875
				c-2.856,1.239-5.434,3.059-7.559,5.333c-0.838,0.897-0.785,2.304,0.111,3.139C630.052,275.244,631.456,275.192,632.292,274.298
				L632.292,274.298z M638.979,280.547c-0.835,0.896-2.24,0.947-3.136,0.111c-0.897-0.835-0.949-2.241-0.114-3.137
				c1.269-1.36,2.81-2.444,4.514-3.185c1.705-0.74,3.535-1.122,5.392-1.122c1.856,0,3.687,0.382,5.391,1.122
				c1.705,0.74,3.245,1.824,4.515,3.185c0.835,0.895,0.783,2.302-0.114,3.137c-0.896,0.836-2.301,0.784-3.136-0.111
				c-0.851-0.911-1.88-1.645-3.025-2.14c-1.147-0.499-2.381-0.745-3.63-0.745s-2.483,0.246-3.63,0.745
				C640.858,278.902,639.829,279.636,638.979,280.547z"/>
		</g>
		<path style="fill-rule:evenodd;clip-rule:evenodd;fill:#CEE3F0;" d="M168.842,74.09c-1.443-1.441-3.169-2.604-5.093-3.401
			c-1.849-0.768-3.871-1.189-5.989-1.189c-2.119,0-4.142,0.422-5.99,1.189c-1.922,0.797-3.65,1.96-5.091,3.401
			c-1.442,1.442-2.607,3.168-3.4,5.092c-0.767,1.849-1.189,3.871-1.189,5.988c0,2.118,0.422,4.143,1.189,5.991
			c0.793,1.922,1.958,3.649,3.4,5.091c1.441,1.441,3.166,2.605,5.088,3.4c1.849,0.768,3.874,1.19,5.994,1.19
			c2.118,0,4.141-0.423,5.989-1.188c1.922-0.797,3.65-1.961,5.093-3.402c1.44-1.441,2.605-3.169,3.4-5.091
			c0.765-1.849,1.189-3.873,1.189-5.991c0-2.117-0.424-4.14-1.189-5.988C171.448,77.258,170.282,75.531,168.842,74.09L168.842,74.09
			z M163.2,72.025c1.734,0.721,3.302,1.776,4.614,3.091c1.314,1.314,2.371,2.88,3.091,4.614c0.693,1.673,1.075,3.51,1.075,5.439
			c0,1.931-0.382,3.77-1.075,5.441c-0.72,1.735-1.776,3.301-3.091,4.614c-1.313,1.314-2.88,2.371-4.614,3.09
			c-1.673,0.692-3.509,1.076-5.44,1.076c-1.929,0-3.765-0.384-5.438-1.076c-1.738-0.719-3.304-1.775-4.618-3.09
			c-1.313-1.313-2.371-2.879-3.091-4.614c-0.691-1.672-1.075-3.511-1.075-5.441c0-1.93,0.383-3.767,1.075-5.439
			c0.72-1.734,1.778-3.3,3.091-4.614c1.314-1.314,2.879-2.37,4.614-3.091c1.672-0.692,3.509-1.074,5.441-1.074
			C159.691,70.951,161.527,71.333,163.2,72.025L163.2,72.025z M164.931,60.493c0.981,0.285,1.946,0.63,2.89,1.031
			c0.957,0.407,1.882,0.871,2.772,1.385c0.904,0.522,1.778,1.101,2.615,1.733c0.837,0.633,1.636,1.313,2.386,2.035
			c0.266,0.257,0.598,0.405,0.939,0.447c0.346,0.044,0.707-0.028,1.021-0.209c2.3-1.329,4.722-2.644,6.975-4.028
			c0.109-0.057,0.224-0.092,0.338-0.104c0.13-0.016,0.261-0.004,0.385,0.028c0.128,0.035,0.248,0.094,0.352,0.172
			c0.101,0.077,0.188,0.175,0.254,0.29c1.678,2.538,3.362,5.818,4.916,8.511c0.067,0.113,0.107,0.237,0.122,0.359
			c0.017,0.131,0.005,0.267-0.028,0.396c-0.034,0.128-0.094,0.248-0.173,0.354c-0.075,0.099-0.172,0.188-0.29,0.255
			c-2.069,1.367-4.738,2.737-6.931,4.005c-0.322,0.184-0.558,0.462-0.693,0.776c-0.047,0.109-0.08,0.225-0.102,0.342l-0.143,0.047
			l0.161,0.647c0.124,0.508,0.234,1.017,0.328,1.523c0.09,0.494,0.167,1.01,0.234,1.547c0.064,0.524,0.11,1.045,0.141,1.559
			c0.032,0.503,0.047,1.028,0.047,1.575c0,0.548-0.015,1.073-0.047,1.576c-0.03,0.514-0.077,1.034-0.141,1.561
			c-0.067,0.535-0.144,1.051-0.234,1.543c-0.094,0.508-0.205,1.017-0.33,1.525c-0.092,0.377-0.047,0.755,0.104,1.082
			c0.149,0.326,0.408,0.599,0.742,0.77l6.14,3.545l-0.002,0.002l0.726,0.42c0.117,0.066,0.214,0.154,0.29,0.254
			c0.079,0.104,0.139,0.225,0.173,0.353c0.033,0.131,0.045,0.267,0.028,0.396c-0.015,0.124-0.055,0.246-0.122,0.361l-4.544,7.876
			l-0.003-0.002l-0.369,0.637c-0.067,0.115-0.154,0.212-0.254,0.289c-0.104,0.079-0.224,0.138-0.352,0.171
			c-0.13,0.035-0.265,0.045-0.395,0.03c-0.121-0.017-0.245-0.057-0.358-0.124c-2.2-1.381-4.681-2.699-6.948-4.008
			c-0.325-0.187-0.68-0.25-1.015-0.21c-0.35,0.042-0.68,0.196-0.939,0.444l-0.003,0.003c-0.752,0.724-1.549,1.405-2.389,2.038
			c-0.834,0.628-1.708,1.207-2.612,1.729c-0.894,0.519-1.828,0.984-2.792,1.395c-0.944,0.401-1.927,0.75-2.939,1.039
			c-0.357,0.103-0.651,0.316-0.861,0.592c-0.209,0.277-0.33,0.626-0.332,0.991l-0.001,8.009c0,0.135-0.027,0.264-0.075,0.377
			c-0.049,0.119-0.125,0.229-0.219,0.323c-0.091,0.094-0.201,0.169-0.322,0.22c-0.115,0.047-0.243,0.073-0.378,0.073h-9.83
			c-0.134,0-0.261-0.026-0.376-0.073c-0.122-0.052-0.233-0.126-0.325-0.218c-0.092-0.096-0.169-0.206-0.216-0.325
			c-0.048-0.113-0.075-0.242-0.075-0.377v-8.011c0-0.38-0.132-0.733-0.356-1.017c-0.226-0.288-0.546-0.497-0.908-0.582
			c-0.981-0.283-1.945-0.628-2.888-1.03c-0.956-0.406-1.883-0.87-2.774-1.386c-0.904-0.522-1.778-1.102-2.612-1.731
			c-0.841-0.631-1.638-1.313-2.388-2.038c-0.278-0.266-0.629-0.416-0.988-0.448c-0.367-0.035-0.74,0.056-1.055,0.263l-6.858,3.96
			c-0.114,0.065-0.238,0.105-0.363,0.122c-0.129,0.015-0.265,0.005-0.397-0.03c-0.127-0.033-0.248-0.092-0.352-0.171
			c-0.1-0.077-0.188-0.174-0.254-0.289c-1.631-2.842-3.285-5.671-4.916-8.513c-0.065-0.113-0.105-0.237-0.121-0.361
			c-0.017-0.129-0.007-0.263,0.027-0.395c0.037-0.13,0.094-0.25,0.171-0.354c0.077-0.102,0.172-0.188,0.285-0.253l6.938-4.007
			c0.321-0.184,0.559-0.46,0.693-0.775c0.037-0.085,0.065-0.174,0.087-0.264l0.181-0.035l-0.183-0.737
			c-0.125-0.507-0.236-1.016-0.328-1.521c-0.092-0.494-0.169-1.01-0.236-1.547c-0.064-0.526-0.111-1.047-0.141-1.561
			c-0.03-0.503-0.047-1.028-0.047-1.576c0-0.545,0.017-1.072,0.047-1.573c0.03-0.514,0.077-1.035,0.141-1.559
			c0.067-0.544,0.146-1.062,0.236-1.551c0.092-0.506,0.203-1.013,0.328-1.521c0.094-0.38,0.047-0.76-0.104-1.084
			c-0.152-0.325-0.41-0.599-0.738-0.768l-6.872-3.966c-0.114-0.063-0.209-0.152-0.288-0.255c-0.077-0.101-0.134-0.221-0.171-0.354
			c-0.034-0.13-0.043-0.264-0.027-0.393c0.015-0.126,0.055-0.25,0.121-0.363c1.678-2.495,3.358-5.828,4.916-8.511
			c0.067-0.115,0.154-0.213,0.254-0.29c0.104-0.078,0.225-0.137,0.352-0.172c0.131-0.033,0.268-0.045,0.396-0.028
			c0.121,0.015,0.244,0.057,0.363,0.124l6.943,4.006c0.325,0.191,0.693,0.257,1.04,0.208c0.35-0.047,0.681-0.208,0.939-0.462
			c0.753-0.727,1.547-1.405,2.376-2.028c0.825-0.621,1.694-1.196,2.604-1.723c0.896-0.517,1.828-0.984,2.793-1.393
			c0.946-0.402,1.927-0.752,2.94-1.042c0.355-0.102,0.651-0.314,0.859-0.589c0.211-0.279,0.331-0.626,0.333-0.991l0.001-8.012
			c0-0.134,0.027-0.261,0.074-0.376c0.048-0.117,0.126-0.228,0.219-0.321c0.09-0.094,0.201-0.17,0.323-0.22
			c0.115-0.049,0.243-0.073,0.376-0.073h9.83c0.136,0,0.263,0.024,0.378,0.073c0.121,0.05,0.231,0.126,0.323,0.218
			c0.179,0.181,0.293,0.429,0.293,0.699v8.012c0,0.384,0.13,0.736,0.352,1.018C164.251,60.199,164.57,60.41,164.931,60.493
			L164.931,60.493z M168.387,60.192c1.011,0.429,1.991,0.919,2.933,1.463c0.961,0.556,1.883,1.169,2.761,1.83
			c0.879,0.663,1.721,1.381,2.517,2.149c0.032,0.029,0.07,0.046,0.11,0.051c0.044,0.005,0.086-0.002,0.121-0.021
			c2.334-1.349,4.671-2.691,7.002-4.046c0.278-0.148,0.576-0.24,0.877-0.274c0.31-0.035,0.623-0.012,0.921,0.069
			c0.305,0.082,0.6,0.224,0.857,0.422c0.248,0.188,0.462,0.429,0.626,0.715c1.693,2.738,3.298,5.707,4.915,8.508
			c0.164,0.285,0.265,0.593,0.305,0.906c0.041,0.323,0.02,0.647-0.063,0.952c-0.08,0.307-0.224,0.6-0.422,0.857
			c-0.188,0.248-0.429,0.464-0.713,0.628c-2.233,1.378-4.654,2.688-6.938,4.007c-0.037,0.019-0.063,0.054-0.081,0.09
			c-0.017,0.039-0.02,0.082-0.01,0.123l0.161,0.646l-0.01,0.004c0.07,0.314,0.134,0.635,0.194,0.959
			c0.101,0.555,0.184,1.102,0.251,1.636c0.063,0.532,0.114,1.08,0.147,1.645c0.034,0.565,0.052,1.121,0.052,1.66
			c0,0.541-0.019,1.094-0.052,1.659c-0.033,0.564-0.083,1.114-0.147,1.646c-0.067,0.535-0.151,1.081-0.251,1.636
			c-0.102,0.553-0.217,1.09-0.347,1.61c-0.012,0.042-0.005,0.087,0.014,0.126c0.019,0.042,0.048,0.075,0.085,0.094
			c2.55,1.361,5.137,2.963,7.658,4.42l-0.09,0.11l0.077,0.097c0.198,0.258,0.342,0.551,0.422,0.857
			c0.084,0.305,0.104,0.63,0.063,0.953c-0.04,0.312-0.141,0.619-0.305,0.903l-5.28,9.148l-0.099-0.059
			c-0.052,0.047-0.107,0.092-0.162,0.136c-0.258,0.196-0.553,0.34-0.857,0.422c-0.305,0.08-0.629,0.104-0.951,0.063
			c-0.305-0.037-0.603-0.135-0.881-0.29c-2.311-1.226-4.689-2.707-6.972-4.025c-0.033-0.018-0.074-0.025-0.115-0.02
			c-0.042,0.005-0.084,0.023-0.114,0.054c-0.795,0.767-1.637,1.484-2.516,2.147c-0.878,0.66-1.798,1.271-2.759,1.827
			c-0.948,0.547-1.936,1.041-2.95,1.473c-1.011,0.429-2.049,0.799-3.111,1.102c-0.041,0.013-0.077,0.036-0.1,0.068
			c-0.027,0.035-0.043,0.077-0.04,0.119v8.009c0,0.329-0.067,0.644-0.188,0.933c-0.124,0.302-0.306,0.571-0.532,0.794
			c-0.224,0.225-0.496,0.407-0.792,0.531c-0.29,0.12-0.605,0.188-0.933,0.188h-9.83c-0.328,0-0.643-0.067-0.933-0.188
			c-0.296-0.124-0.567-0.307-0.795-0.531c-0.223-0.223-0.405-0.492-0.529-0.794c-0.121-0.289-0.188-0.604-0.188-0.933v-8.011
			c0-0.047-0.013-0.091-0.039-0.121c-0.025-0.031-0.064-0.057-0.109-0.066l-0.032-0.012c-1.066-0.307-2.098-0.675-3.089-1.097
			c-1.01-0.431-1.989-0.919-2.933-1.465c-0.961-0.556-1.882-1.167-2.759-1.828c-0.881-0.663-1.721-1.384-2.518-2.15
			c-0.034-0.031-0.074-0.05-0.114-0.054c-0.044-0.005-0.087,0.007-0.126,0.03l-6.936,4.005c-0.287,0.164-0.593,0.265-0.901,0.305
			c-0.325,0.04-0.648,0.017-0.955-0.063c-0.305-0.082-0.598-0.225-0.855-0.422c-0.243-0.185-0.454-0.419-0.618-0.694
			c-1.822-2.931-3.543-6.142-5.282-9.15l0.094-0.057c-0.019-0.077-0.032-0.154-0.042-0.231c-0.04-0.321-0.017-0.645,0.063-0.951
			c0.082-0.305,0.225-0.599,0.422-0.855c0.189-0.249,0.429-0.464,0.713-0.628l6.938-4.006c0.037-0.021,0.064-0.054,0.081-0.091
			c0.017-0.038,0.02-0.083,0.01-0.125l-0.181-0.733l0.012-0.002c-0.062-0.286-0.121-0.576-0.176-0.87
			c-0.1-0.555-0.184-1.103-0.251-1.638c-0.063-0.531-0.114-1.08-0.147-1.646c-0.033-0.565-0.05-1.118-0.05-1.659
			c0-0.539,0.017-1.093,0.05-1.659c0.034-0.563,0.084-1.113,0.147-1.648c0.065-0.531,0.151-1.077,0.251-1.636
			c0.104-0.551,0.218-1.087,0.347-1.605c0.01-0.042,0.005-0.088-0.013-0.129c-0.019-0.039-0.049-0.07-0.089-0.091l-6.93-4.002
			c-0.287-0.165-0.527-0.38-0.712-0.627c-0.197-0.26-0.341-0.553-0.422-0.856c-0.08-0.305-0.104-0.627-0.063-0.95
			c0.04-0.304,0.136-0.604,0.295-0.885c1.65-3.059,3.544-6.145,5.291-9.17l0.099,0.059c0.052-0.047,0.109-0.094,0.164-0.135
			c0.258-0.198,0.551-0.34,0.855-0.422c0.307-0.082,0.63-0.106,0.953-0.065c0.313,0.041,0.62,0.14,0.901,0.3l0.514,0.295
			l-0.003,0.005l6.436,3.716c0.04,0.021,0.083,0.028,0.124,0.023c0.04-0.006,0.081-0.025,0.111-0.054l0.017-0.019
			c0.787-0.759,1.627-1.474,2.513-2.14c0.879-0.663,1.796-1.271,2.744-1.82c0.949-0.547,1.935-1.04,2.952-1.472
			c1.009-0.43,2.047-0.799,3.109-1.104c0.042-0.012,0.077-0.036,0.101-0.068c0.027-0.035,0.043-0.077,0.04-0.117v-8.012
			c0-0.326,0.067-0.643,0.188-0.931c0.124-0.301,0.307-0.57,0.533-0.795c0.226-0.225,0.495-0.407,0.791-0.531
			c0.29-0.12,0.605-0.186,0.933-0.186h9.83c0.328,0,0.643,0.066,0.933,0.186c0.296,0.124,0.568,0.307,0.795,0.531
			c0.442,0.443,0.716,1.055,0.716,1.726v8.012c0,0.047,0.017,0.089,0.04,0.122c0.025,0.032,0.064,0.056,0.107,0.065l0.032,0.012
			C166.365,59.402,167.398,59.771,168.387,60.192z"/>
		<g>
			<path style="fill-rule:evenodd;clip-rule:evenodd;fill:#FFFFFF;" d="M435.327,156.38c1.983,0,3.6-1.617,3.6-3.6
				c0-1.984-1.617-3.602-3.6-3.602c-1.982,0-3.6,1.617-3.6,3.602C431.727,154.763,433.345,156.38,435.327,156.38z"/>
			<g>
				<path style="fill-rule:evenodd;clip-rule:evenodd;fill:#AFCADC;" d="M110.635,316.393L110.635,316.393L110.635,316.393z
					 M106.166,299.375c-1.557-1.556-3.706-2.518-6.081-2.518c-2.374,0-4.523,0.962-6.077,2.518c-1.557,1.556-2.52,3.705-2.52,6.079
					s0.963,4.524,2.52,6.079c1.554,1.556,3.703,2.519,6.077,2.519c2.375,0,4.524-0.963,6.081-2.519
					c1.554-1.555,2.518-3.705,2.518-6.079S107.72,300.931,106.166,299.375L106.166,299.375z M104.308,290.853
					c1.192,0.343,2.32,0.828,3.37,1.435c1.077,0.621,2.068,1.371,2.955,2.229c0.174,0.167,0.432,0.19,0.63,0.077l3.996-2.308
					l0.022-0.013c0.229-0.124,0.489-0.147,0.728-0.084c0.247,0.066,0.467,0.225,0.601,0.46l0.017,0.027l2.813,4.868
					c0.134,0.234,0.161,0.506,0.096,0.752c-0.065,0.246-0.225,0.466-0.46,0.602l-0.027,0.018l-3.961,2.287
					c-0.209,0.119-0.305,0.36-0.25,0.583h-0.002c0.147,0.589,0.258,1.195,0.335,1.816c0.074,0.604,0.11,1.223,0.11,1.852
					c0,0.63-0.037,1.248-0.11,1.852c-0.077,0.622-0.188,1.228-0.335,1.817c-0.061,0.244,0.06,0.492,0.278,0.599l3.961,2.287v0.002
					c0.236,0.136,0.395,0.355,0.46,0.602c0.065,0.246,0.039,0.517-0.096,0.751l-2.828,4.895h-0.002
					c-0.134,0.236-0.354,0.394-0.599,0.459c-0.248,0.067-0.518,0.04-0.752-0.096l-0.028-0.015l-3.968-2.292
					c-0.208-0.119-0.462-0.08-0.63,0.077c-0.887,0.857-1.878,1.607-2.955,2.228c-1.055,0.609-2.191,1.097-3.392,1.441
					c-0.232,0.065-0.383,0.277-0.383,0.507v4.609c0,0.271-0.112,0.518-0.291,0.696c-0.179,0.181-0.425,0.292-0.698,0.292h-5.654
					c-0.271,0-0.519-0.111-0.7-0.292c-0.177-0.179-0.29-0.425-0.29-0.696v-4.609c0-0.249-0.172-0.458-0.407-0.514
					c-1.19-0.345-2.321-0.829-3.369-1.435c-1.075-0.621-2.069-1.371-2.957-2.228c-0.181-0.175-0.455-0.192-0.656-0.061l-3.968,2.29
					c-0.234,0.136-0.504,0.163-0.75,0.096c-0.246-0.065-0.465-0.223-0.603-0.459l-0.017-0.026l-2.811-4.87h0.001
					c-0.137-0.234-0.164-0.504-0.097-0.75c0.067-0.246,0.224-0.468,0.457-0.602l3.991-2.306c0.21-0.12,0.303-0.359,0.25-0.582l0,0
					c-0.144-0.59-0.258-1.195-0.332-1.817c-0.074-0.604-0.114-1.222-0.114-1.852c0-0.629,0.04-1.247,0.114-1.854
					c0.074-0.619,0.188-1.226,0.332-1.814c0.06-0.246-0.06-0.492-0.278-0.6l-3.963-2.288c-0.233-0.135-0.39-0.355-0.457-0.602
					c-0.067-0.246-0.041-0.516,0.097-0.75l0.015-0.028l2.811-4.869l0,0c0.138-0.235,0.357-0.394,0.603-0.46
					c0.246-0.066,0.516-0.039,0.75,0.097l0,0l3.995,2.308c0.214,0.122,0.476,0.08,0.641-0.089c0.886-0.853,1.874-1.598,2.945-2.217
					c1.055-0.609,2.193-1.097,3.392-1.441c0.231-0.065,0.383-0.278,0.383-0.508v-4.609c0-0.27,0.112-0.517,0.29-0.697
					c0.181-0.18,0.429-0.29,0.7-0.29h5.654c0.273,0,0.519,0.11,0.698,0.29c0.179,0.181,0.291,0.427,0.291,0.697v4.609
					C103.903,290.589,104.075,290.798,104.308,290.853z"/>
				<g>
					<path style="fill-rule:evenodd;clip-rule:evenodd;fill:#7FA6C2;" d="M256.752,105.707h4.157c1.001,0,1.818-0.819,1.818-1.82
						v-4.157c0-0.999-0.817-1.818-1.818-1.818h-4.157c-1,0-1.818,0.819-1.818,1.818v4.157
						C254.935,104.888,255.753,105.707,256.752,105.707z"/>
					<path style="fill-rule:evenodd;clip-rule:evenodd;fill:#FFFFFF;" d="M271.171,105.707h4.157c1.001,0,1.818-0.819,1.818-1.82
						v-4.157c0-0.999-0.817-1.818-1.818-1.818h-4.157c-0.999,0-1.816,0.819-1.816,1.818v4.157
						C269.355,104.888,270.172,105.707,271.171,105.707z"/>
					<path style="fill-rule:evenodd;clip-rule:evenodd;fill:#7FA6C2;" d="M285.592,105.707h4.155c1.001,0,1.82-0.819,1.82-1.82
						v-4.157c0-0.999-0.819-1.818-1.82-1.818h-4.155c-1.001,0-1.818,0.819-1.818,1.818v4.157
						C283.773,104.888,284.59,105.707,285.592,105.707z"/>
					<path style="fill-rule:evenodd;clip-rule:evenodd;fill:#FFFFFF;" d="M300.01,105.707h4.157c1,0,1.82-0.819,1.82-1.82v-4.157
						c0-0.999-0.821-1.818-1.82-1.818h-4.157c-1.001,0-1.818,0.819-1.818,1.818v4.157
						C298.192,104.888,299.009,105.707,300.01,105.707z"/>
					<path style="fill-rule:evenodd;clip-rule:evenodd;fill:#7FA6C2;" d="M314.429,105.707h4.159c1.001,0,1.818-0.819,1.818-1.82
						v-4.157c0-0.999-0.817-1.818-1.818-1.818h-4.159c-1,0-1.818,0.819-1.818,1.818v4.157
						C312.611,104.888,313.43,105.707,314.429,105.707z"/>
					<path style="fill-rule:evenodd;clip-rule:evenodd;fill:#FFFFFF;" d="M286.114,89.985h4.157c1,0,1.818-0.816,1.818-1.818V84.01
						c0-1.001-0.818-1.818-1.818-1.818h-4.157c-1.001,0-1.818,0.817-1.818,1.818v4.157
						C284.296,89.169,285.113,89.985,286.114,89.985z"/>
					<path style="fill-rule:evenodd;clip-rule:evenodd;fill:#7FA6C2;" d="M300.533,89.985h4.157c1.002,0,1.818-0.816,1.818-1.818
						V84.01c0-1.001-0.817-1.818-1.818-1.818h-4.157c-1.001,0-1.818,0.817-1.818,1.818v4.157
						C298.714,89.169,299.532,89.985,300.533,89.985z"/>
					<path style="fill-rule:evenodd;clip-rule:evenodd;fill:#FFFFFF;" d="M314.952,89.985h4.157c1.001,0,1.82-0.816,1.82-1.818
						V84.01c0-1.001-0.819-1.818-1.82-1.818h-4.157c-1.001,0-1.818,0.817-1.818,1.818v4.157
						C313.133,89.169,313.95,89.985,314.952,89.985z"/>
				</g>
				<path style="fill-rule:evenodd;clip-rule:evenodd;fill:#7FA6C2;" d="M623.292,93.245c0-0.529,0.429-0.959,0.96-0.959
					c0.53,0,0.959,0.43,0.959,0.959v4.318c0,0.529-0.429,0.959-0.959,0.959c-0.531,0-0.96-0.43-0.96-0.959V93.245L623.292,93.245z
					 M616.749,96.751c-0.375-0.375-0.375-0.982,0-1.357s0.983-0.375,1.358,0l3.052,3.052c0.375,0.375,0.375,0.983,0,1.358
					s-0.98,0.375-1.355,0L616.749,96.751L616.749,96.751z M614.602,103.855c-0.53,0-0.961-0.431-0.961-0.96
					c0-0.53,0.431-0.959,0.961-0.959h4.316c0.529,0,0.961,0.429,0.961,0.959c0,0.529-0.432,0.96-0.961,0.96H614.602L614.602,103.855
					z M618.107,110.398c-0.375,0.375-0.983,0.375-1.358,0s-0.375-0.983,0-1.358l3.055-3.054c0.375-0.373,0.98-0.373,1.355,0
					c0.375,0.375,0.375,0.984,0,1.358L618.107,110.398L618.107,110.398z M625.211,112.546c0,0.529-0.429,0.96-0.959,0.96
					c-0.531,0-0.96-0.431-0.96-0.96v-4.317c0-0.531,0.429-0.96,0.96-0.96c0.53,0,0.959,0.429,0.959,0.96V112.546L625.211,112.546z
					 M631.754,109.04c0.375,0.375,0.375,0.983,0,1.358s-0.982,0.375-1.357,0l-3.053-3.054c-0.375-0.374-0.375-0.983,0-1.358
					c0.375-0.373,0.981-0.373,1.356,0L631.754,109.04L631.754,109.04z M633.902,101.937c0.53,0,0.959,0.429,0.959,0.959
					c0,0.529-0.429,0.96-0.959,0.96h-4.318c-0.528,0-0.961-0.431-0.961-0.96c0-0.53,0.433-0.959,0.961-0.959H633.902
					L633.902,101.937z M630.396,95.394c0.375-0.375,0.982-0.375,1.357,0s0.375,0.982,0,1.357l-3.054,3.053
					c-0.375,0.375-0.981,0.375-1.356,0s-0.375-0.983,0-1.358L630.396,95.394z"/>
				<path style="fill-rule:evenodd;clip-rule:evenodd;fill:#7FA6C2;" d="M95.244,355.555c0-0.529,0.432-0.959,0.961-0.959
					c0.529,0,0.961,0.43,0.961,0.959v4.318c0,0.529-0.432,0.959-0.961,0.959c-0.529,0-0.961-0.43-0.961-0.959V355.555
					L95.244,355.555z M88.702,359.06c-0.373-0.375-0.373-0.982,0-1.357c0.375-0.375,0.983-0.375,1.358,0l3.054,3.052
					c0.373,0.375,0.373,0.983,0,1.358c-0.376,0.375-0.985,0.375-1.36,0L88.702,359.06L88.702,359.06z M86.554,366.165
					c-0.529,0-0.959-0.431-0.959-0.96c0-0.53,0.431-0.959,0.959-0.959h4.318c0.531,0,0.959,0.429,0.959,0.959
					c0,0.529-0.429,0.96-0.959,0.96H86.554L86.554,366.165z M90.06,372.708c-0.375,0.375-0.982,0.375-1.358,0
					c-0.373-0.375-0.373-0.983,0-1.358l3.052-3.054c0.375-0.373,0.984-0.373,1.36,0c0.373,0.375,0.373,0.984,0,1.358L90.06,372.708
					L90.06,372.708z M97.165,374.855c0,0.529-0.432,0.96-0.961,0.96c-0.529,0-0.961-0.431-0.961-0.96v-4.317
					c0-0.531,0.432-0.96,0.961-0.96c0.529,0,0.961,0.429,0.961,0.96V374.855L97.165,374.855z M103.707,371.35
					c0.374,0.375,0.374,0.983,0,1.358c-0.375,0.375-0.983,0.375-1.358,0l-3.054-3.054c-0.374-0.374-0.374-0.983,0-1.358
					c0.375-0.373,0.984-0.373,1.359,0L103.707,371.35L103.707,371.35z M105.855,364.246c0.529,0,0.959,0.429,0.959,0.959
					c0,0.529-0.43,0.96-0.959,0.96h-4.318c-0.531,0-0.959-0.431-0.959-0.96c0-0.53,0.428-0.959,0.959-0.959H105.855L105.855,364.246
					z M102.349,357.703c0.375-0.375,0.983-0.375,1.358,0c0.374,0.375,0.374,0.982,0,1.357l-3.052,3.053
					c-0.375,0.375-0.984,0.375-1.359,0c-0.374-0.375-0.374-0.983,0-1.358L102.349,357.703z"/>
				<path style="fill-rule:evenodd;clip-rule:evenodd;fill:#FFFFFF;" d="M174.732,226.672c1.984,0,3.6-1.617,3.6-3.6
					c0-1.984-1.616-3.602-3.6-3.602c-1.982,0-3.6,1.617-3.6,3.602C171.133,225.055,172.75,226.672,174.732,226.672z"/>
				<path style="fill-rule:evenodd;clip-rule:evenodd;fill:#FFFFFF;" d="M243.31,62.086c1.982,0,3.6-1.617,3.6-3.6
					c0-1.984-1.617-3.602-3.6-3.602c-1.983,0-3.6,1.617-3.6,3.602C239.71,60.469,241.328,62.086,243.31,62.086z"/>
				<path style="fill-rule:evenodd;clip-rule:evenodd;fill:#FFFFFF;" d="M476.474,65.515c1.983,0,3.602-1.617,3.602-3.6
					c0-1.984-1.618-3.602-3.602-3.602c-1.982,0-3.6,1.617-3.6,3.602C472.874,63.897,474.491,65.515,476.474,65.515z"/>
				<path style="fill-rule:evenodd;clip-rule:evenodd;fill:#FFFFFF;" d="M629.059,163.237c1.982,0,3.6-1.617,3.6-3.6
					c0-1.983-1.617-3.601-3.6-3.601s-3.6,1.617-3.6,3.601C625.459,161.62,627.076,163.237,629.059,163.237z"/>
				<path style="fill-rule:evenodd;clip-rule:evenodd;fill:#FFFFFF;" d="M599.913,264.39c1.984,0,3.602-1.617,3.602-3.6
					c0-1.983-1.617-3.602-3.602-3.602c-1.982,0-3.6,1.618-3.6,3.602C596.313,262.772,597.931,264.39,599.913,264.39z"/>
			</g>
		</g>
		<g>
			<polygon style="fill-rule:evenodd;clip-rule:evenodd;fill:#DE9C00;" points="187.984,406.163 466.086,406.163 466.086,246.317 
				327.035,164.955 187.984,246.317 			"/>
			<path style="fill-rule:evenodd;clip-rule:evenodd;fill:#FFFFFF;" d="M235.736,361.887h182.599c4.652,0,8.46-3.806,8.46-8.458
				V193.443l-49.933-52.61H235.736c-4.651,0-8.458,3.804-8.458,8.456v204.14C227.277,358.081,231.085,361.887,235.736,361.887z"/>
			<path style="fill-rule:evenodd;clip-rule:evenodd;fill:#E5E5E6;" d="M235.736,366.629h182.599c4.652,0,8.46-3.806,8.46-8.459
				v-89.643l-73.863,52.17l0.001,0.001l-25.899,18.295l-25.897-18.296l0,0l-73.86-52.17v89.643
				C227.277,362.823,231.085,366.629,235.736,366.629z"/>
			<path style="fill-rule:evenodd;clip-rule:evenodd;fill:#F0F1F1;" d="M426.795,201.587v-8.143l-42.004-44.256v43.94
				c0,4.653,3.808,8.459,8.46,8.459H426.795z"/>
			<path style="fill-rule:evenodd;clip-rule:evenodd;fill:#A3C1D5;" d="M376.862,140.833v44.151c0,4.653,3.807,8.459,8.46,8.459
				h41.473L376.862,140.833z"/>
			<polygon style="fill-rule:evenodd;clip-rule:evenodd;fill:#FBC900;" points="187.986,246.317 301.137,326.24 187.986,406.163 			
				"/>
			<polygon style="fill-rule:evenodd;clip-rule:evenodd;fill:#FBC900;" points="466.085,246.317 352.932,326.24 466.085,406.163 			
				"/>
			<polygon style="fill-rule:evenodd;clip-rule:evenodd;fill:#F6AF00;" points="466.086,406.163 352.935,326.242 327.035,344.536 
				301.137,326.24 187.984,406.163 			"/>
			<path style="fill-rule:evenodd;clip-rule:evenodd;fill:#DBDCDC;" d="M241.807,210.311h170.459c0.9,0,1.631,0.733,1.631,1.63l0,0
				c0,0.899-0.73,1.633-1.631,1.633H241.807c-0.901,0-1.634-0.733-1.634-1.633l0,0C240.172,211.045,240.906,210.311,241.807,210.311
				z"/>
			<path style="fill-rule:evenodd;clip-rule:evenodd;fill:#DBDCDC;" d="M241.807,224.239h170.459c0.9,0,1.631,0.733,1.631,1.631l0,0
				c0,0.9-0.73,1.634-1.631,1.634H241.807c-0.901,0-1.634-0.733-1.634-1.634l0,0C240.172,224.973,240.906,224.239,241.807,224.239z"
				/>
			<path style="fill-rule:evenodd;clip-rule:evenodd;fill:#DBDCDC;" d="M241.807,238.167h170.459c0.9,0,1.631,0.733,1.631,1.631l0,0
				c0,0.899-0.73,1.635-1.631,1.635H241.807c-0.901,0-1.634-0.735-1.634-1.635l0,0C240.172,238.9,240.906,238.167,241.807,238.167z"
				/>
			<path style="fill-rule:evenodd;clip-rule:evenodd;fill:#DBDCDC;" d="M241.807,252.096h170.459c0.9,0,1.631,0.733,1.631,1.631l0,0
				c0,0.898-0.73,1.632-1.631,1.632H241.807c-0.901,0-1.634-0.733-1.634-1.632l0,0C240.172,252.829,240.906,252.096,241.807,252.096
				z"/>
			<path style="fill-rule:evenodd;clip-rule:evenodd;fill:#DBDCDC;" d="M241.807,266.024h170.459c0.9,0,1.631,0.732,1.631,1.632l0,0
				c0,0.899-0.73,1.631-1.631,1.631H241.807c-0.901,0-1.634-0.731-1.634-1.631l0,0C240.172,266.757,240.906,266.024,241.807,266.024
				z"/>
			<path style="fill-rule:evenodd;clip-rule:evenodd;fill:#DBDCDC;" d="M244.405,186.896h86.101c0.897,0,1.634,0.733,1.634,1.631
				v0.002c0,0.898-0.737,1.631-1.634,1.631h-86.101c-0.897,0-1.632-0.733-1.632-1.631v-0.002
				C242.772,187.63,243.508,186.896,244.405,186.896z"/>
			<path style="fill-rule:evenodd;clip-rule:evenodd;fill:#DBDCDC;" d="M351.378,186.896H339.64c-0.897,0-1.632,0.733-1.632,1.631
				v0.002c0,0.898,0.735,1.631,1.632,1.631h11.738c0.896,0,1.631-0.733,1.631-1.631v-0.002
				C353.009,187.63,352.274,186.896,351.378,186.896z"/>
			<path style="fill-rule:evenodd;clip-rule:evenodd;fill:#DBDCDC;" d="M244.405,175.753h97.673c0.897,0,1.633,0.733,1.633,1.631
				l0,0c0,0.898-0.735,1.632-1.633,1.632h-97.673c-0.897,0-1.632-0.733-1.632-1.632l0,0
				C242.772,176.486,243.508,175.753,244.405,175.753z"/>
			<path style="fill-rule:evenodd;clip-rule:evenodd;fill:#DBDCDC;" d="M245.399,156.703h17.108c1.443,0,2.625,1.181,2.625,2.625
				l0,0c0,1.445-1.182,2.625-2.625,2.625h-17.108c-1.446,0-2.627-1.18-2.627-2.625l0,0
				C242.772,157.884,243.953,156.703,245.399,156.703z"/>
			<path style="fill-rule:evenodd;clip-rule:evenodd;fill:#DBDCDC;" d="M272.529,156.703h41.983c1.443,0,2.622,1.181,2.622,2.625
				l0,0c0,1.445-1.179,2.625-2.622,2.625h-41.983c-1.443,0-2.625-1.18-2.625-2.625l0,0
				C269.904,157.884,271.086,156.703,272.529,156.703z"/>
		</g>
		<g>
			<path style="fill-rule:evenodd;clip-rule:evenodd;fill:#915E40;" d="M601.704,285.31H454.195c-4.102,0-7.46,3.668-7.46,8.152
				v104.423c0,4.484,3.358,8.152,7.46,8.152h147.509c4.105,0,7.461-3.668,7.461-8.152V293.462
				C609.165,288.978,605.81,285.31,601.704,285.31z"/>
			<path style="fill-rule:evenodd;clip-rule:evenodd;fill:#FFFFFF;" d="M589.931,293.696c-6.103,0-11.05,5.406-11.05,12.073
				s4.947,12.071,11.05,12.071c6.102,0,11.047-5.404,11.047-12.071S596.032,293.696,589.931,293.696z"/>
			<path style="fill-rule:evenodd;clip-rule:evenodd;fill:#FFFFFF;" d="M571.709,297.537h-32.431c-1.184,0-2.151,1.058-2.151,2.352
				l0,0c0,1.294,0.968,2.352,2.151,2.352h32.431c1.182,0,2.151-1.058,2.151-2.352l0,0
				C573.86,298.595,572.891,297.537,571.709,297.537z"/>
			<path style="fill-rule:evenodd;clip-rule:evenodd;fill:#FFFFFF;" d="M564.642,308.198h-16.718c-1.184,0-2.151,1.059-2.151,2.353
				l0,0c0,1.294,0.968,2.352,2.151,2.352h16.718c1.184,0,2.151-1.059,2.151-2.352l0,0
				C566.793,309.257,565.825,308.198,564.642,308.198z"/>
			<path style="fill-rule:evenodd;clip-rule:evenodd;fill:#FFFFFF;" d="M571.492,308.198h0.217c1.182,0,2.151,1.059,2.151,2.353l0,0
				c0,1.294-0.97,2.352-2.151,2.352h-0.217c-1.184,0-2.151-1.059-2.151-2.352l0,0C569.341,309.257,570.309,308.198,571.492,308.198z
				"/>
			<path style="fill-rule:evenodd;clip-rule:evenodd;fill:#FFFFFF;" d="M489.506,390.989h-32.431c-1.182,0-2.151,1.058-2.151,2.352
				l0,0c0,1.295,0.97,2.353,2.151,2.353h32.431c1.182,0,2.151-1.058,2.151-2.353l0,0
				C491.657,392.047,490.688,390.989,489.506,390.989z"/>
			<path style="fill-rule:evenodd;clip-rule:evenodd;fill:#BE865E;" d="M596.896,323.805H459.008c-2.247,0-4.084,2.007-4.084,4.462
				v52.058c0,2.454,1.837,4.462,4.084,4.462h137.889c2.245,0,4.081-2.008,4.081-4.462v-52.058
				C600.977,325.811,599.142,323.805,596.896,323.805z"/>
			<path style="fill-rule:evenodd;clip-rule:evenodd;fill:#F0F1F1;" d="M468.946,366.359l0.502,2.513c0,0-0.42,6.892-0.42,7.708
				c0,0.813,0.821,4.673,0.821,4.673s-2.292,6.922-9.374,5.908c-7.084-1.015-14.4-12.721-14.4-12.721s4.942-4.979,7.154-14.68
				C455.443,350.061,468.946,366.359,468.946,366.359z"/>
			<path style="fill-rule:evenodd;clip-rule:evenodd;fill:#020516;" d="M542.991,246.432l-5.95-8.265l-46.658,18.526l-3.094,3.094
				l2.565,6.73C489.854,266.518,535.337,263.208,542.991,246.432z"/>
			<path style="fill-rule:evenodd;clip-rule:evenodd;fill:#020516;" d="M576.646,252.96c0,0,8.912-2.532,8.912,5.61
				c0,11.671-9.391,26.989-29.264,26.989c-14.332,0-50.363,1.17-63.719,1.17c0,0-2.768-0.002-4.07,3.908
				c-1.303,3.909-17.853,85.912-17.853,85.912s1.627,4.105-1.141,3.863c-1.392-0.123-4.117-2.626-7.588-4.014
				c-1.414-0.564-7.701-1.896-11.914-2.566c-2.037-0.327-4.034,0.436-3.914-0.273c0.026-0.157-0.429-0.542-0.213-1.498
				c0.069-0.303,0.849-1.509,0.921-1.87c3.109-15.638,18.998-94.552,20.038-97.82c1.14-3.583,4.887-7.004,14.495-8.795
				c9.608-1.791,42.022-7.982,48.375-9.936c6.352-1.955,7.329-12.053,7.329-15.474C537.041,234.749,553.848,230.158,576.646,252.96z
				"/>
			<path style="fill-rule:evenodd;clip-rule:evenodd;fill:#131E3A;" d="M472.987,405.945c0,0-64.636,0.565-66.623,0
				c-1.987-0.564-2.852-1.643-2.852-4.064c0-2.423,0-3.374,0-5.19c0-1.143,0.26-2.597,1.919-3.754
				c0.973-0.678,2.428-1.066,4.596-1.737c5.863-1.815,13.763-2.596,18.16-3.547c4.397-0.95,12.296-11.849,13.354-12.54
				c1.06-0.691,4.155-0.691,7.33-0.691c3.176,0,8.308,0.173,9.854,3.806c1.547,3.632,8.12,4.139,10.614,3.02
				c0,0,2.414-0.167,2.985,1.477c0.569,1.643,0.253,13.06,0.415,14.27c0.163,1.211-0.366,1.773-0.366,1.773s1.099,0.822,1.303,1.21
				c0.204,0.391,0.284,1.472,0.284,2.596C473.962,403.698,474.106,405.859,472.987,405.945z"/>
			<path style="fill-rule:evenodd;clip-rule:evenodd;fill:#131E3A;" d="M405.633,393.094c0.968-0.635,2.37-1.266,4.395-1.894
				c5.863-1.817,13.763-2.596,18.16-3.547c0.948-0.204,2.057-0.87,3.225-1.798l8.795-0.345l0.283,2.765c0,0,2.648,0.479,1.631,2.251
				c-1.018,1.773-9.202,4.194-16.448,4.194c-7.249,0-14.903,0-17.673,0C406.463,394.721,405.729,394.133,405.633,393.094z"/>
			<path style="fill-rule:evenodd;clip-rule:evenodd;fill:#131E3A;" d="M472.987,405.945c0,0-3.442,0.042-10.609,0.092
				c-6.029-1.607-11.34-3.402-11.34-3.402s10.1-14.01,9.528-15.308c-0.571-1.298-7.737-7.611-7.737-7.611s1.042-1.892,2.507-4.462
				c1.483,0.551,2.747,1.464,3.391,2.974c1.547,3.632,8.12,4.139,10.614,3.02c0,0,2.414-0.167,2.985,1.477
				c0.569,1.643,0.253,13.06,0.415,14.27c0.163,1.211-0.366,1.773-0.366,1.773s1.099,0.822,1.303,1.21
				c0.204,0.391,0.284,1.472,0.284,2.596C473.962,403.698,474.106,405.859,472.987,405.945z"/>
			<path style="fill-rule:evenodd;clip-rule:evenodd;fill:#010B1C;" d="M427.294,387.836c0.312-0.06,0.609-0.12,0.894-0.183
				c4.397-0.95,12.296-11.849,13.354-12.54c1.06-0.691,4.155-0.691,7.33-0.691c2.38,0,5.859,0.098,8.102,1.675l0.004,0.003l0,0
				c0.392,0.295,1.945,1.778-2.113,4.395c-4.561,2.94-10.75,6.745-13.112,7.523C439.392,388.797,433.844,388.086,427.294,387.836z"
				/>
			<path style="fill-rule:evenodd;clip-rule:evenodd;fill:#AFB5BA;" d="M406.304,398.764c1.835,0.533,59.515,0.06,66.039,0.004
				c0,0,1.077,0.822,1.276,1.21c0.199,0.391,0.279,1.472,0.279,2.596c0,1.125,0.139,3.286-0.956,3.372c0,0-64.694,0.565-66.639,0
				c-1.943-0.564-2.791-1.643-2.791-4.064c0-2.423,0-3.374,0-5.19c0-0.296,0.017-0.596,0.072-0.896
				C403.824,397.463,404.682,398.292,406.304,398.764z"/>
			<path style="fill-rule:evenodd;clip-rule:evenodd;fill:#F2F9FC;" d="M406.304,398.764c1.64,0.476,47.804,0.149,62.315,0.034
				c-0.004,1.116-0.108,2.452-0.961,2.52c0,0-51.963,0.454-64.145,0.141v-4.767c0-0.296,0.017-0.596,0.072-0.896
				C403.824,397.463,404.682,398.292,406.304,398.764z"/>
			<path style="fill-rule:evenodd;clip-rule:evenodd;fill:#FFFFFF;" d="M443.895,375.647c-0.174-0.145-0.124-0.467,0.117-0.717
				c0.238-0.249,0.576-0.334,0.752-0.189l2.625,2.176l6.484-1.227c0.288-0.054,0.473,0.132,0.407,0.417
				c-0.065,0.282-0.354,0.559-0.642,0.612l-5.282,1l1.897,1.572c0.177,0.146,0.123,0.467-0.114,0.716
				c-0.061,0.063-0.124,0.114-0.192,0.154c-0.122,0.199-0.337,0.363-0.555,0.403l-5.28,1l1.898,1.572
				c0.175,0.146,0.124,0.467-0.117,0.716c-0.153,0.163-0.352,0.257-0.518,0.26l-5.709,1.08l1.523,1.51l0.007,0.007l0.003,0.004
				l0.005,0.003l0.002,0.004l0.005,0.005l0.002,0.003l0.003,0.004l0.004,0.005l0.003,0.003l0.003,0.005l0.004,0.002l0.003,0.005
				l0.002,0.004l0.005,0.006v0.002l0.004,0.007l0.003,0.003l0.003,0.006v0.003l0.006,0.007v0.002l0.003,0.008l0.002,0.002
				l0.003,0.008l0,0l0.004,0.011l0,0l0.003,0.01l0,0l0.003,0.01l0,0l0.004,0.011l0,0v0.01l0.002,0.002l0.001,0.01l0.002,0.01
				l0.002,0.012l0.001,0.01l0,0l0.002,0.012v0.035l-0.002,0.023l0,0l-0.001,0.012l0,0v0.012l0,0l-0.002,0.012l0,0
				c-0.005,0.025-0.009,0.049-0.017,0.074v0.003l-0.009,0.022v0.003l-0.003,0.01v0.004l-0.005,0.008
				c-0.009,0.023-0.018,0.049-0.032,0.072l-0.003,0.005l-0.004,0.009l-0.001,0.003l-0.006,0.01l-0.001,0.004l-0.028,0.049h-0.004
				l-0.007,0.012v0.001l-0.017,0.023h-0.002l-0.008,0.012v0.002l-0.01,0.01v0.002l-0.009,0.012l-0.019,0.022l-0.003,0.004
				l-0.007,0.008l-0.004,0.002l-0.008,0.01l-0.002,0.002l-0.009,0.01l-0.003,0.002l-0.009,0.009l-0.003,0.003l-0.007,0.007
				l-0.003,0.005l-0.007,0.007l-0.007,0.005l-0.005,0.005l-0.005,0.005l-0.007,0.005l-0.007,0.007l-0.003,0.004l-0.009,0.007
				l-0.003,0.003l-0.009,0.007l-0.003,0.002l-0.011,0.008l-0.012,0.009l-0.001,0.001l-0.011,0.009l-0.003,0.002l-0.01,0.007
				l-0.002,0.001l-0.01,0.009h-0.002l-0.012,0.007l-0.002,0.001l-0.01,0.009h-0.002l-0.012,0.007v0.002l-0.014,0.006l-0.013,0.007
				l-0.011,0.009l-0.013,0.005v0.002l-0.014,0.005v0.002l-0.014,0.005v0.001l-0.013,0.006l0,0l-0.012,0.006h-0.002l-0.012,0.006l0,0
				l-0.012,0.005h-0.002l-0.012,0.005h-0.002l-0.012,0.005l0,0l-0.013,0.003l0,0l-0.014,0.006l0,0l-0.014,0.003l0,0l-0.012,0.003
				h-0.001l-0.023,0.007l0,0l-0.014,0.004l0,0l-0.014,0.001l0,0l-0.012,0.002h-0.002l-0.01,0.002h-0.003l-0.011,0.002h-0.001
				l-0.012,0.001l0,0h-0.011h-0.003h-0.01l-0.004,0.002l-0.008-0.002l-0.005,0.002h-0.007l-0.004-0.002h-0.008h-0.005h-0.007h-0.007
				l-0.004-0.001h-0.006h-0.007l-0.011-0.002l-8.507-1.029h-0.012c-0.04-0.004-0.076-0.011-0.108-0.023v-0.002l-0.009-0.004h-0.001
				l-0.028-0.013l-0.007-0.005h-0.004l-0.015-0.012l-0.007-0.006l-0.002-0.001l-0.007-0.005l0,0
				c-0.013-0.011-0.024-0.022-0.036-0.034v-0.001c-0.059-0.071-0.082-0.171-0.06-0.29v-0.004l0.003-0.024
				c0.021-0.091,0.064-0.178,0.121-0.258l0,0l0.007-0.012l0.003-0.002l0.027-0.035l0.006-0.01l0.004-0.002l0.037-0.044l0.003-0.001
				c0.017-0.017,0.033-0.035,0.052-0.051l0.002-0.003c0.104-0.092,0.228-0.161,0.352-0.191h0.003l0.027-0.006l5.021-0.95
				l-1.654-1.639c-0.162-0.159-0.09-0.483,0.159-0.725c0.151-0.145,0.332-0.228,0.487-0.233l5.223-0.989l-1.896-1.572
				c-0.178-0.146-0.124-0.467,0.113-0.716c0.06-0.063,0.124-0.114,0.191-0.154c0.124-0.199,0.338-0.363,0.556-0.403l5.28-1
				L443.895,375.647L443.895,375.647z M439.099,386.398l-0.929-0.92l-2.603,0.492L439.099,386.398L439.099,386.398z
				 M444.287,383.336l-1.77-1.469l-5.214,0.986l1.528,1.516L444.287,383.336L444.287,383.336z M448.783,379.697l-2.022-1.676
				l-5.639,1.066l2.022,1.677L448.783,379.697z"/>
			<path style="fill-rule:evenodd;clip-rule:evenodd;fill:#F0F1F1;" d="M483.689,339.321c0.162-0.489,0.914-4.781,0.914-4.781
				s-1.104-3.848-1.172-5.846c-0.068-1.995-1.127-5.822-1.127-5.822l-8.061-0.407l-7.155,6.707c0,0-0.012,3.961-0.663,5.753
				c-0.653,1.791,12.066,4.805,12.066,4.805L483.689,339.321z"/>
			<path style="fill-rule:evenodd;clip-rule:evenodd;fill:#020E28;" d="M514.727,240.123c-20.191,0.87-57.792-15.188-55.702,19.111
				c1.341,21.993,5.379,58.73,6.51,69.595c0.207,2.004-0.573,3.166-0.573,3.166s0.327,1.182,1.549,1.1
				c0,0,10.757-1.303,17.763,1.223c0,0,2.105,0.316,2.35-1.15c0.033-0.204-0.722-2.233-0.556-4.689
				c1.027-15.216,4.179-65.617,4.179-65.617c19.217-3.679,46.795-1.865,46.795-24.694L514.727,240.123z"/>
			<path style="fill-rule:evenodd;clip-rule:evenodd;fill:#131E3A;" d="M447.79,370.076c0,0,14.56-1.715,20.705-2.439
				c6.147-0.723,8.213-2.689,11.561-6.281c3.349-3.592,7.464-8.342,8.167-9.326c0.703-0.984,0.596-2.94,0.469-4.031
				c-0.131-1.092-1.239-2.149-1.239-2.149s-0.694-5.905-0.907-7.726c-0.215-1.819-1.212-3.302-1.942-3.584
				c0,0-2.091,1.395-5.763,0.842c-3.674-0.551-3.295-2.892-6.771-2.483c-3.479,0.41-3.56,0.421-6.067,0.715
				c-2.507,0.295-4.672,2.108-5.265,4.72c-0.596,2.612-0.614,5.239-2.789,8.365c-2.173,3.126-10.255,13.18-11.244,14.525
				c-0.989,1.347-1.795,2.509-1.614,4.045c0.181,1.537,0.234,1.981,0.339,2.872C445.533,369.029,446.27,370.252,447.79,370.076z"/>
			<path style="fill-rule:evenodd;clip-rule:evenodd;fill:#131E3A;" d="M447.79,370.076c0,0,14.56-1.715,20.705-2.439
				c1.772-0.209,3.203-0.521,4.426-0.944c-0.482-2.902-1.072-6.367-1.072-6.367s-0.134-1.149-0.348-2.97
				c-0.215-1.82-0.436-2.958-7.474-2.128l-9.05,1.087c0,0-1.264,0.148-2.721,0.319c-1.433,0.169-2.613,0.859-3.174,1.545
				l-0.027,0.032c-1.17,1.485-2.063,2.618-2.351,3.012c-0.989,1.347-1.795,2.509-1.614,4.045c0.181,1.537,0.234,1.981,0.339,2.872
				C445.533,369.029,446.27,370.252,447.79,370.076z"/>
			<path style="fill-rule:evenodd;clip-rule:evenodd;fill:#131E3A;" d="M483.188,357.916c2.393-2.68,4.544-5.197,5.035-5.886
				c0.703-0.984,0.596-2.94,0.469-4.031c-0.131-1.092-1.239-2.149-1.239-2.149s-0.694-5.905-0.907-7.726
				c-0.215-1.819-1.212-3.302-1.942-3.584c0,0-2.091,1.395-5.763,0.842c-3.191-0.479-3.325-2.308-5.582-2.512l-1.83,4.815
				c0,0,8.019,2.296,8.788,2.573c0.772,0.278,1.497,1.217,1.226,4.12c-0.274,2.901-1.128,13.744-1.128,13.744
				S481.47,358.046,483.188,357.916z"/>
			<path style="fill-rule:evenodd;clip-rule:evenodd;fill:#010B1C;" d="M475.417,333.808l-0.082-0.063l-0.005-0.003l-0.004-0.002
				l-0.001-0.002c-0.78-0.582-1.558-1.038-3.255-0.839c-3.479,0.41-3.56,0.421-6.067,0.715c-2.507,0.295-4.672,2.108-5.265,4.72
				c-0.181,0.792-0.308,1.584-0.458,2.393c0,0-0.222,4.27-0.951,5.38c-0.73,1.111-4.148,7.049-5.271,8.493
				c-1.122,1.443,0.919,1.717,0.919,1.717s3.399-0.4,7.361-0.868c3.964-0.467,5.147-0.852,6.309-2.136
				c1.161-1.284,4.494-6.393,5.576-7.996c1.085-1.603,1.383-4.631,2.016-7.616C476.776,335.159,475.74,334.074,475.417,333.808z"/>
			<path style="fill-rule:evenodd;clip-rule:evenodd;fill:#AFB5BA;" d="M479.293,354.887c-3.349,3.592-5.413,5.557-11.56,6.28
				c-6.146,0.725-20.703,2.439-20.703,2.439c-0.672,0.077-1.19-0.117-1.567-0.436c-0.305,0.651-0.462,1.328-0.372,2.098
				c0.181,1.537,0.234,1.981,0.339,2.872c0.104,0.889,0.84,2.111,2.36,1.936c0,0,14.56-1.715,20.705-2.439
				c6.147-0.723,8.213-2.689,11.561-6.281c3.349-3.592,7.464-8.342,8.167-9.326c0.703-0.984,0.596-2.94,0.469-4.031
				c-0.131-1.092-1.239-2.149-1.239-2.149s-0.01-0.086-0.026-0.24C486.63,346.693,482.591,351.351,479.293,354.887z"/>
			<path style="fill-rule:evenodd;clip-rule:evenodd;fill:#F2F9FC;" d="M479.293,354.887c-3.349,3.592-5.413,5.557-11.56,6.28
				c-6.146,0.725-20.703,2.439-20.703,2.439c-0.672,0.077-1.19-0.117-1.567-0.436c-0.305,0.651-0.462,1.328-0.372,2.098l0.175,1.487
				c27.792-3.459,28.794-3.019,33.495-8.036c2.126-2.272,4.797-5.214,7.025-8.021c1.184-1.49,0.633-3.806-1.164-1.741
				C483.043,350.772,481.06,352.99,479.293,354.887z"/>
			<path style="fill-rule:evenodd;clip-rule:evenodd;fill:#FFFFFF;" d="M462.885,339.645c-0.323-0.105-0.499-0.452-0.395-0.775
				c0.104-0.321,0.452-0.499,0.773-0.394l4.815,1.564l6.968-2.982c0.311-0.134,0.673,0.012,0.806,0.323
				c0.132,0.312-0.012,0.673-0.323,0.806l-5.678,2.429l3.478,1.131c0.321,0.105,0.499,0.451,0.395,0.774
				c-0.027,0.079-0.067,0.149-0.119,0.21c0,0.237-0.139,0.465-0.373,0.563l-5.676,2.43l3.476,1.132
				c0.323,0.104,0.499,0.45,0.395,0.773c-0.066,0.209-0.237,0.358-0.439,0.407l-6.138,2.625l2.977,1.163l0.016,0.006l0.005,0.001
				l0.01,0.004l0.005,0.003l0.009,0.004l0.007,0.003l0.007,0.002l0.007,0.005l0.006,0.002l0.007,0.005l0.007,0.001l0.007,0.006
				l0.005,0.003l0.009,0.005l0.005,0.002l0.008,0.005l0.004,0.003l0.01,0.006l0.004,0.003l0.01,0.005l0.002,0.002l0.012,0.008l0,0
				l0.01,0.009l0.003,0.002l0.011,0.008l0,0l0.01,0.009l0.002,0.002l0.012,0.008l0,0l0.01,0.01l0,0l0.01,0.011l0,0l0.01,0.01
				l0.011,0.012l0.012,0.01l0.008,0.012l0,0l0.011,0.012l0.026,0.035l0.017,0.025l0,0l0.007,0.014v-0.002l0.007,0.014h0.002
				l0.006,0.013h0.002c0.012,0.025,0.023,0.054,0.033,0.081l0.002,0.003l0.009,0.025v0.003l0.003,0.012l0.002,0.004l0.002,0.01
				c0.006,0.026,0.013,0.054,0.015,0.082l0.002,0.005v0.01v0.006v0.012v0.003l0.001,0.057l-0.001,0.004v0.014v0.001l-0.004,0.028
				v0.002v0.014l-0.001,0.002l-0.002,0.013v0.002l-0.004,0.014l-0.006,0.028v0.003l-0.004,0.012v0.004l-0.003,0.012v0.003
				l-0.004,0.01l-0.003,0.004l-0.004,0.01l-0.001,0.005l-0.002,0.011l-0.003,0.005l-0.004,0.008l-0.003,0.007l-0.004,0.007
				l-0.003,0.007l-0.002,0.007l-0.003,0.008l-0.002,0.005l-0.007,0.009v0.005l-0.007,0.009l-0.001,0.005l-0.006,0.008l-0.008,0.014
				l-0.002,0.004l-0.007,0.01l-0.001,0.002l-0.007,0.012l-0.002,0.001l-0.007,0.011v0.001l-0.01,0.011v0.001l-0.009,0.011
				l-0.001,0.001l-0.009,0.011l0,0l-0.009,0.012l-0.01,0.012l-0.01,0.01l-0.01,0.01l-0.002,0.002l-0.01,0.008l-0.002,0.002
				l-0.01,0.01l0,0l-0.011,0.009v0.002l-0.013,0.008l0,0l-0.011,0.009l0,0l-0.012,0.01h-0.001l-0.011,0.007l-0.001,0.002
				l-0.012,0.008l0,0l-0.012,0.007l-0.002,0.002l-0.012,0.007l0,0l-0.012,0.008h-0.002l-0.012,0.007l0,0l-0.026,0.014l0,0
				l-0.014,0.005v0.002l-0.014,0.005h-0.001l-0.012,0.005h-0.004l-0.012,0.005h-0.002l-0.012,0.005h-0.001l-0.014,0.004
				l-0.003,0.001l-0.011,0.004h-0.003l-0.01,0.003L467.769,353l-0.01,0.002l-0.005,0.001l-0.01,0.002h-0.005l-0.009,0.004h-0.007
				l-0.01,0.001l-0.007,0.002H467.7l-0.008,0.002h-0.006l-0.017,0.001l-11.108,1.178l-0.016,0.003
				c-0.05,0.007-0.1,0.009-0.148,0.004h-0.002l-0.014-0.002l0,0l-0.045-0.007l-0.012-0.002l-0.003-0.001l-0.03-0.007l-0.01-0.004
				l-0.004-0.001l-0.01-0.004l-0.004-0.002c-0.023-0.006-0.045-0.015-0.066-0.024l-0.004-0.002
				c-0.123-0.057-0.226-0.154-0.289-0.283l-0.002-0.003l-0.014-0.028c-0.041-0.098-0.057-0.199-0.047-0.299l0,0l0.002-0.015h0.002
				l0.007-0.045v-0.014l0.001-0.002l0.016-0.055v-0.002c0.008-0.023,0.017-0.045,0.026-0.067l0.002-0.001
				c0.057-0.124,0.155-0.228,0.283-0.292l0.003-0.001l0.028-0.014l5.398-2.311l-3.231-1.263c-0.314-0.122-0.471-0.478-0.349-0.793
				c0.075-0.191,0.236-0.323,0.421-0.372l5.615-2.402l-3.479-1.13c-0.321-0.105-0.499-0.452-0.394-0.775
				c0.025-0.079,0.065-0.149,0.117-0.209c0.002-0.24,0.141-0.466,0.374-0.564l5.676-2.43L462.885,339.645L462.885,339.645z
				 M465.057,352.059l-1.813-0.708l-2.799,1.197L465.057,352.059L465.057,352.059z M469.087,347.514l-3.248-1.055l-5.605,2.398
				l2.986,1.167L469.087,347.514L469.087,347.514z M471.843,342.555l-3.707-1.204l-6.059,2.594l3.705,1.203L471.843,342.555z"/>
			<path style="fill-rule:evenodd;clip-rule:evenodd;fill:#F18F2F;" d="M592.357,158.203c0.8,15.142,1.033,33.385,1.033,33.385
				s-5.964,27.972-5.964,41.326c0,8.128,3.921,16.925,2.578,22.639c-4.201,17.888-20.144-15.43-54.273-15.43h-21.006
				c0,0-3.097-2.268-3.342-6.26c-0.214-3.489,5.181-21.595,6.645-28.91c-1.35,1.975-2.262,3.193-2.262,3.193
				s-10.925,1.901-11.354-9.885c-0.429-11.787,9.217-49.076,12.753-53.47c6.611-8.217,12.632-12.389,23.191-14.793
				c0,0,14.142-3.121,28.266-1.38c0.474,0.112,14.277,1.942,23.764,10.923c0.456,4.005-0.288,12.727,0,18.649L592.357,158.203z"/>
			<path style="fill-rule:evenodd;clip-rule:evenodd;fill:#EB664C;" d="M593.347,188.804c0.03,1.761,0.044,2.784,0.044,2.784
				s-5.964,27.972-5.964,41.326c0,8.128,3.921,16.925,2.578,22.639c-3.486,14.846-15.062-5.577-38.407-12.953
				c5.25-5.282,15.945-16.94,21.624-29.434c7.716-16.974,7.199-37.033,6.43-55.291C583.017,171.715,588.06,181.42,593.347,188.804z"
				/>
			
				<path style="fill-rule:evenodd;clip-rule:evenodd;fill:#EC6D3B;stroke:#EB664C;stroke-width:0.216;stroke-miterlimit:22.9256;" d="
				M524.417,177.996c2.572-23.402,0.258-29.832,0.258-29.832s-5.455,34.596-10.341,46.169c-4.885,11.574-6.889,7.58-5.089,7.58
				c1.802,0,15.689,2.828,15.689-0.258C524.934,198.569,524.417,177.996,524.417,177.996z"/>
			<path style="fill-rule:evenodd;clip-rule:evenodd;fill:#FFFFFF;" d="M525.191,166.68c5.657,5.272,40.631,6.688,51.175,5.399
				c10.545-1.285,10.545-1.285,10.545-1.285l1.285,23.66c0.123,2.262-23.7,3.305-43.142,1.054
				c-12.336-1.429-23.755-5.49-23.465-7.227L525.191,166.68z"/>
			<path style="fill-rule:evenodd;clip-rule:evenodd;fill:#DBDCDC;" d="M580.055,171.631l3.766-0.459
				c1.111,2.823,2.297,5.421,3.536,7.824l0.84,15.458c0.051,0.923-3.896,1.645-9.904,2.02
				C579.765,188.355,580.127,179.936,580.055,171.631z"/>
			<path style="fill-rule:evenodd;clip-rule:evenodd;fill:#F4AD85;" d="M560.481,227.497c-0.768,1.033-3.187-0.218-3.913,0.521
				c-6.723,6.827-11.909,2.318-19.49,9.059c-3.543,3.149,18.769,1.877,21.087,2.187l13.889-9.129L560.481,227.497z"/>
			<path style="fill-rule:evenodd;clip-rule:evenodd;fill:#EA745D;" d="M556.292,228.294c-1.172,1.143-2.297,1.946-3.398,2.532
				c3.341,2.466,3.846,4.945,1.867,5.737c-2.25,0.9-7.649,1.607-13.887,0.9c-1.486-0.169-2.056,0.394-1.892,1.319
				c5.181,0.871,17.491,0.255,19.182,0.48l9.076-5.967C564.234,230.792,560.119,228.394,556.292,228.294z"/>
			<path style="fill-rule:evenodd;clip-rule:evenodd;fill:#FFFFFF;" d="M570.845,128.992c1.844,0.44-0.074,6.348-2.032,10.095
				c-8.542,16.318-26.916,11.19-26.916-8.872v-0.573c2.015-0.509,2.353-0.683,3.831-1.006
				C554.956,127.973,561.841,126.848,570.845,128.992z"/>
			<path style="fill-rule:evenodd;clip-rule:evenodd;fill:#EB6B5D;" d="M556.885,103.083L556.885,103.083
				c-6.302,0-11.459,5.155-11.459,11.459v15.157c0,6.302,2.971,14.931,9.272,14.931c6.304,0,13.646-8.629,13.646-14.931v-15.157
				C568.344,108.238,563.186,103.083,556.885,103.083z"/>
			<path style="fill-rule:evenodd;clip-rule:evenodd;fill:#020E28;" d="M546.733,257.845c0,0-43.549,9.696-45.522,10.354
				c-1.972,0.656-3.778,3.45-3.284,9.201c0.492,5.751,3.286,1.102,15.446,1.922c12.16,0.822,38.618,0.281,45.684-2.982
				c7.065-3.262,9.86-4.527,7.231-12.58C563.66,255.709,553.143,256.365,546.733,257.845z"/>
			<path style="fill-rule:evenodd;clip-rule:evenodd;fill:#F18F2F;" d="M601.809,172.384c0.521,8.584,1.108,17.667,0.273,25.185
				c-0.664,5.985-2.564,11.073-3.735,13.446c-1.25,2.533-24.813,22.02-33.076,28.546c-0.993,0.783-2.267,2.342-2.252,1.739
				c0.192-7.685-2.512-6.811-8.624-11.392c7.142-6.665,24.803-22.738,27.344-30.786c0,0,1.073-2.357,0.431-9.644
				c-0.642-7.286-1.764-32.186-1.673-36.007c0.09-3.82,0.725-10.986,3.482-14.438c3.154-1.523,5.947-1.514,8.134,0.306
				C599.016,145.091,601.319,164.311,601.809,172.384z"/>
			<path style="fill-rule:evenodd;clip-rule:evenodd;fill:#F29A47;" d="M556.442,231.342c-0.636-0.416-1.317-0.886-2.049-1.434
				c7.142-6.665,24.803-22.738,27.344-30.786c0,0,1.073-2.357,0.431-9.644c-0.642-7.286-1.764-32.186-1.673-36.007
				c0.026-1.162,0.103-2.63,0.278-4.211c0.954-1.045,1.507-1.612,1.507-1.612s6.429,39.089,6.171,45.776
				C588.205,199.83,578.515,212.848,556.442,231.342z"/>
			<path style="fill-rule:evenodd;clip-rule:evenodd;fill:#E62952;" d="M478.034,244.257h79.356c1.483,0,2.698-1.214,2.698-2.699
				v-0.002c0-1.483-1.215-2.696-2.698-2.696h-79.356c-1.483,0-2.699,1.215-2.699,2.696v0.002
				C475.335,243.041,476.549,244.257,478.034,244.257z"/>
			<path style="fill-rule:evenodd;clip-rule:evenodd;fill:#E62952;" d="M478.034,244.257h79.356c0.961,0,1.81-0.511,2.287-1.272
				c-0.477-0.764-1.326-1.273-2.287-1.273h-79.356c-0.961,0-1.811,0.509-2.287,1.273
				C476.224,243.746,477.073,244.257,478.034,244.257z"/>
			<path style="fill-rule:evenodd;clip-rule:evenodd;fill:#D10D49;" d="M475.935,238.859h67.958c1.942,0,3.335-1.589,3.098-3.53
				l-5.418-44.02c-0.238-1.941-2.022-3.529-3.965-3.529h-67.958c-1.942,0-3.335,1.589-3.096,3.529l5.416,44.02
				C472.211,237.27,473.994,238.859,475.935,238.859z"/>
			<path style="fill-rule:evenodd;clip-rule:evenodd;fill:#E62952;" d="M475.935,238.859h65.955c1.94,0,3.334-1.589,3.095-3.53
				l-5.418-44.02c-0.238-1.941-2.023-3.529-3.963-3.529h-65.954c-1.942,0-3.335,1.589-3.096,3.529l5.416,44.02
				C472.211,237.27,473.994,238.859,475.935,238.859z"/>
			<path style="fill-rule:evenodd;clip-rule:evenodd;fill:#E84B6B;" d="M479.529,238.859h6.785l53.569-44.968l-0.317-2.582
				c-0.094-0.77-0.433-1.486-0.928-2.067L479.529,238.859L479.529,238.859z M530.931,187.78l-58.436,49.053
				c-0.274-0.457-0.459-0.968-0.525-1.504l-0.841-6.846l48.49-40.703H530.931z"/>
			<path style="fill-rule:evenodd;clip-rule:evenodd;fill:#D10D49;" d="M547.556,244.257h9.835c1.483,0,2.698-1.214,2.698-2.699
				v-0.002c0-1.483-1.215-2.696-2.698-2.696h-9.835c-1.483,0-2.697,1.215-2.697,2.696v0.002
				C544.858,243.041,546.072,244.257,547.556,244.257z"/>
			<path style="fill-rule:evenodd;clip-rule:evenodd;fill:#D10D49;" d="M476.685,240.208h70.7c0.743,0,1.35-0.607,1.35-1.349l0,0
				c0-0.742-0.607-1.35-1.35-1.35h-70.7c-0.743,0-1.35,0.607-1.35,1.35l0,0C475.335,239.601,475.941,240.208,476.685,240.208z"/>
			<path style="fill-rule:evenodd;clip-rule:evenodd;fill:#FFFDF8;" d="M504.378,206.536c3.747,0,7.098,3.037,7.479,6.783
				c0.385,3.747-2.341,6.784-6.088,6.784c-3.747,0-7.096-3.037-7.48-6.784c-0.061-0.586-0.044-1.153,0.04-1.695
				c0.673,0.634,1.572,1.029,2.521,1.029c1.852,0,3.198-1.5,3.007-3.351c-0.101-0.989-0.621-1.88-1.366-2.492
				C503.081,206.631,503.714,206.536,504.378,206.536z"/>
			<path style="fill-rule:evenodd;clip-rule:evenodd;fill:#E8685B;" d="M579.427,96.721c0.174,0.023,0.344,0.053,0.513,0.088
				l0.005,0.001v-0.001c3.11,0.652,5.473,3.382,5.537,6.695c0.073,3.853-2.99,7.035-6.842,7.106
				c-3.852,0.074-7.035-2.99-7.108-6.841c-0.044-2.238,0.975-4.251,2.59-5.559c-0.178,2.06,0.149,4.609,2.777,4.864l-0.075-4.021
				C576.792,97.424,578.311,96.676,579.427,96.721z"/>
			<path style="fill-rule:evenodd;clip-rule:evenodd;fill:#E8685B;" d="M529.079,96.721c-0.171,0.023-0.342,0.053-0.511,0.088
				l-0.006,0.001v-0.001c-3.11,0.652-5.475,3.382-5.538,6.695c-0.072,3.853,2.994,7.035,6.845,7.106
				c3.851,0.074,7.033-2.99,7.106-6.841c0.043-2.238-0.973-4.251-2.589-5.559c0.178,2.06-0.15,4.609-2.779,4.864l0.077-4.021
				C531.714,97.424,530.197,96.676,529.079,96.721z"/>
			<path style="fill-rule:evenodd;clip-rule:evenodd;fill:#F4AD85;" d="M554.253,61.875L554.253,61.875
				c13.136,0,23.885,10.747,23.885,23.883v21.724c0,13.137-10.749,23.884-23.885,23.884l0,0c-13.133,0-23.884-10.747-23.884-23.884
				V85.758C530.369,72.622,541.12,61.875,554.253,61.875z"/>
			<path style="fill-rule:evenodd;clip-rule:evenodd;fill:#EF8871;" d="M554.253,61.875L554.253,61.875
				c13.136,0,23.885,10.747,23.885,23.883v21.724c0,13.137-10.749,23.884-23.885,23.884c18.326-2.026,18.961-18.468,18.961-27.629
				c0-9.162-7.876-12.237-9.725-12.237c-1.848,0-8.932,0-8.932,0c-9.852,7.563-21.675,8.634-21.675,8.634l-2.514,1.455l0.777-6.07
				l16.93-5.999c0,0-8.286,0.307-17.707,0.139v-3.899C530.369,72.622,541.12,61.875,554.253,61.875L554.253,61.875z
				 M554.253,131.365"/>
			<path style="fill-rule:evenodd;clip-rule:evenodd;fill:#FFFFFF;" d="M559.44,113.976c0.134,3.411-2.521,6.285-5.932,6.42
				c-3.412,0.134-6.285-2.521-6.421-5.934h0.012c-0.023-0.586,0.438-1.085,1.023-1.108l10.199-0.402
				c0.586-0.024,1.085,0.438,1.108,1.024H559.44z"/>
			<path style="fill-rule:evenodd;clip-rule:evenodd;fill:#FFFFFF;" d="M557.328,118.875c-1.026,0.897-2.353,1.462-3.822,1.521
				c-1.198,0.047-2.33-0.252-3.3-0.804c0.424-1.286,1.773-2.291,3.44-2.418C555.239,117.052,556.665,117.762,557.328,118.875z"/>
			<path style="fill-rule:evenodd;clip-rule:evenodd;fill:#FFFFFF;" d="M547.987,113.37l9.584-0.379
				c0.194,1.054-0.255,2.146-0.958,2.406c-0.857,0.316-7.799,0.408-8.311-0.117C548.055,115.025,547.987,114.177,547.987,113.37z"/>
			<path style="fill-rule:evenodd;clip-rule:evenodd;fill:#E8685B;" d="M540.711,108.664c1.735-0.034,3.168,1.346,3.201,3.08
				c0.034,1.734-1.346,3.168-3.08,3.199c-1.734,0.034-3.168-1.346-3.201-3.08C537.599,110.129,538.98,108.695,540.711,108.664z"/>
			<path style="fill-rule:evenodd;clip-rule:evenodd;fill:#E8685B;" d="M567.727,108.149c1.734-0.031,3.167,1.348,3.201,3.081
				c0.031,1.734-1.347,3.167-3.081,3.201c-1.734,0.031-3.168-1.348-3.201-3.083C564.613,109.616,565.992,108.183,567.727,108.149z"
				/>
			<path style="fill-rule:evenodd;clip-rule:evenodd;fill:#010C28;" d="M532.883,97.055c0,0,0,1.597,0,3.078
				c0,1.482-1.377,3.137-2.514,3.137v-3.364c0,0-0.48-2.481-3.544-2.481c-9.402-10.807-8.162-27.963,1.873-36.858
				c10.034-8.896,31.589-9.465,35.353-8.211c3.762,1.255,7.638,7.64,7.638,7.64s3.194-2.85,6.158-1.369
				c2.965,1.483,10.766,17.933,10.766,22.609c0,4.676-6.929,16.189-6.929,16.189c-3.063,0-3.546,2.481-3.546,2.481v3.364
				c-1.137,0-2.515-1.654-2.515-3.137c0-1.481,0-3.078,0-3.078c-9.438-4.192-12.43-16.765-12.43-16.765
				S548.284,99.312,532.883,97.055z"/>
			<path style="fill-rule:evenodd;clip-rule:evenodd;fill:#0F1630;" d="M520.458,78.592c0.253-5.431,2.074-10.725,5.35-14.937
				c8.049,5.446,24.946,12.368,41.548-9.1c1.062,1.008,2.022,2.172,2.77,3.165C564.141,68.927,549.435,87.583,520.458,78.592z"/>
			<path style="fill-rule:evenodd;clip-rule:evenodd;fill:#020516;" d="M532.883,97.055c-1.631,0.703-0.896,10.78-2.739,10.78
				c-0.52-2.655-0.228-10.411-3.318-10.411c-3.721-4.275-5.773-9.543-6.275-14.9c11,11.047,37.152,1.09,43.602-7.15
				c0,0,10.909,11.652,24.432,5.775c0.061,0.347,0.093,0.656,0.093,0.921c0,4.677-6.992,15.354-6.992,15.354
				c-1.872,0-2.271,6.734-3.546,10.09c-1.137,0-2.515-5.897-2.515-7.381c0-1.483,0-3.078,0-3.078
				c-9.438-4.192-12.43-16.765-12.43-16.765S548.284,99.312,532.883,97.055z"/>
			<path style="fill-rule:evenodd;clip-rule:evenodd;fill:#020516;" d="M539.009,98.246c-0.417,0.21-0.928,0.04-1.137-0.378
				c-0.21-0.419-0.04-0.928,0.378-1.136c2.247-1.16,5.251-1.294,7.457,0.029c0.398,0.239,0.531,0.763,0.292,1.163
				c-0.24,0.398-0.764,0.531-1.162,0.291C543.05,97.146,540.815,97.384,539.009,98.246z"/>
			<path style="fill-rule:evenodd;clip-rule:evenodd;fill:#020516;" d="M569.502,98.248c-1.812-0.864-4.045-1.102-5.83-0.032
				c-0.399,0.24-0.924,0.107-1.163-0.291c-0.239-0.4-0.109-0.924,0.293-1.163c2.203-1.323,5.21-1.189,7.455-0.03
				c0.419,0.209,0.588,0.718,0.379,1.137C570.426,98.286,569.917,98.456,569.502,98.248z"/>
			<path style="fill-rule:evenodd;clip-rule:evenodd;fill:#020516;" d="M566.905,101.104h0.002c1.131,0,2.061,0.928,2.061,2.061
				v2.69c0,1.134-0.93,2.062-2.061,2.062h-0.002c-1.134,0-2.061-0.928-2.061-2.062v-2.69
				C564.844,102.032,565.771,101.104,566.905,101.104z"/>
			<path style="fill-rule:evenodd;clip-rule:evenodd;fill:#020516;" d="M541.602,101.104L541.602,101.104
				c-1.136,0-2.063,0.928-2.063,2.061v2.69c0,1.134,0.928,2.062,2.063,2.062l0,0c1.135,0,2.063-0.928,2.063-2.062v-2.69
				C543.665,102.032,542.737,101.104,541.602,101.104z"/>
			<path style="fill-rule:evenodd;clip-rule:evenodd;fill:#F8CAB0;" d="M551.396,106.107c0,0-1.306,2.834-1.457,3.708
				c-0.15,0.872,0.693,1.354,2.462,1.073C554.169,110.607,552.602,104.379,551.396,106.107z"/>
			<path style="fill-rule:evenodd;clip-rule:evenodd;fill:#020516;" d="M576.745,97.118c-0.764-0.883-2.216-2.024-3.084-2.678
				c-0.225-0.179-0.452-0.348-0.69-0.509c-0.01-0.007-0.017-0.012-0.017-0.012v0.002c-1.681-1.125-3.703-1.781-5.88-1.781
				c-2.93,0-5.582,1.19-7.501,3.114c-0.928,0.867-1.727,1.816-2.555,2.747c-1.048,1.181-1.669,0.601-2.717,0.601
				c-1.05,0-1.67,0.58-2.718-0.601c-0.827-0.931-1.627-1.88-2.555-2.747c-1.919-1.924-4.604-3.114-7.534-3.114
				c-2.177,0-4.328,0.656-5.914,1.781V93.92c0,0,0.027,0.005,0.017,0.012c-0.238,0.161-0.452,0.33-0.675,0.509
				c-0.869,0.653-2.359,1.795-3.123,2.678c-0.375,0.434-0.899,0.733-1.432,0.94v4.119c0.229,0.675,0.496,1.897,0.869,3.162
				c0.154,0.602,0.37,1.181,0.619,1.736c0.235,0.553,0.51,1.063,0.821,1.483l0.003-0.003c1.896,2.869,5.148,4.765,8.844,4.765
				c4.292,0,7.984-2.555,9.648-6.223c0.002-0.006,0.005-0.007,0.009-0.012c0.008-0.014,0.017-0.027,0.023-0.041
				c0.76-1.29,1.526-4.823,1.871-5.386c0.351-0.567,1.225-0.611,1.225-0.611s0.872,0.044,1.222,0.611
				c0.347,0.563,1.111,4.096,1.872,5.386c0.008,0.014,0.017,0.027,0.025,0.041c0.001,0.005,0.003,0.006,0.006,0.012
				c1.665,3.668,5.358,6.223,9.647,6.223c3.696,0,6.948-1.896,8.844-4.765v0.003c0.312-0.42,0.581-0.931,0.813-1.483
				c0.251-0.556,0.457-1.135,0.609-1.736c0.345-1.168,0.586-2.299,0.797-2.997v-4.296C577.62,97.84,577.113,97.543,576.745,97.118
				L576.745,97.118z M541.526,111.88L541.526,111.88c-5.053,0-9.149-4.097-9.149-9.149c0-5.054,4.097-9.15,9.149-9.15
				c5.055,0,9.15,4.097,9.15,9.15C550.677,107.783,546.581,111.88,541.526,111.88L541.526,111.88z M567.074,111.88L567.074,111.88
				c-5.053,0-9.148-4.097-9.148-9.149c0-5.054,4.096-9.15,9.148-9.15c5.055,0,9.151,4.097,9.151,9.15
				C576.226,107.783,572.129,111.88,567.074,111.88z"/>
		</g>
	</g>
</g>
<g id="DESIGNED_BY_FREEPIK">
	<path style="fill:#1C262D;" d="M384.396,475.844c-0.941,0.966-1.562,2.167-1.791,3.473l-0.748-0.132
		c0.107-0.604,0.289-1.19,0.539-1.743l-0.451-0.234c-0.057,0.026-0.117,0.045-0.184,0.052c-0.33,0.039-0.631-0.197-0.67-0.528
		c-0.037-0.331,0.199-0.631,0.529-0.67c0.31-0.036,0.592,0.169,0.66,0.466l0.465,0.241c0.305-0.522,0.676-1.01,1.107-1.453
		L384.396,475.844z M386.346,474.444c0.936-0.447,1.941-0.674,2.996-0.674c0.496,0,0.992,0.053,1.475,0.158l0.16-0.741
		c-0.535-0.116-1.084-0.175-1.635-0.175c-0.172,0-0.342,0.006-0.51,0.017l-0.074-0.626c0.188-0.149,0.297-0.389,0.266-0.645
		c-0.045-0.393-0.402-0.674-0.795-0.628c-0.393,0.046-0.674,0.402-0.627,0.796c0.029,0.254,0.189,0.461,0.404,0.563l0.072,0.624
		c-0.713,0.116-1.402,0.332-2.059,0.646L386.346,474.444z M395.797,474.362c-0.309,0.038-0.535,0.304-0.529,0.608l-0.416,0.363
		c-0.418-0.43-0.891-0.813-1.408-1.14l-0.404,0.642c1.135,0.715,2.021,1.727,2.564,2.925l0.69-0.313
		c-0.25-0.554-0.566-1.071-0.941-1.545l0.402-0.351c0.061,0.012,0.125,0.016,0.189,0.007c0.332-0.04,0.566-0.341,0.525-0.672
		C396.43,474.557,396.129,474.321,395.797,474.362z M388.795,483.221c-0.387,0.023-0.775,0.035-1.158,0.035
		c-0.879,0-1.732-0.061-2.478-0.18c-0.391-0.062-0.846-0.154-1.27-0.292c1.047,1.861,3.068,3.125,5.389,3.125
		c2.855,0,5.262-1.916,5.949-4.503c-0.682,0.449-1.506,0.825-2.459,1.122C391.588,482.897,390.213,483.136,388.795,483.221z
		 M395.373,479.725c0.025,0.191,0.041,0.387,0.045,0.581c-1.375,1.201-3.791,1.985-6.672,2.159
		c-2.641,0.159-4.674-0.248-5.348-0.731c-0.09-0.412-0.137-0.836-0.137-1.261c0-3.277,2.729-5.943,6.08-5.943
		C392.4,474.529,394.994,476.763,395.373,479.725z M389.031,479.194c0-1.021-0.83-1.85-1.85-1.85c-1.02,0-1.85,0.83-1.85,1.85
		c0,1.02,0.83,1.85,1.85,1.85C388.201,481.044,389.031,480.214,389.031,479.194z M393.279,478.775c0-0.75-0.609-1.36-1.359-1.36
		s-1.361,0.61-1.361,1.36s0.611,1.36,1.361,1.36S393.279,479.525,393.279,478.775z M403.119,477.165
		c0-0.666,0.293-0.938,0.844-1.007c0.576-0.071,1.088,0.122,1.383,0.238v-1.729c-0.434-0.187-0.947-0.308-1.59-0.308
		c-1.674,0-2.568,1.102-2.568,2.782v0.889h-1.34v1.717h1.34v5.455h1.932v-5.455h2.229v-1.717h-2.229V477.165z M409.973,477.839
		c-0.881,0-1.568,0.304-2.02,0.977v-0.784h-1.873v7.172h1.932v-3.908c0-1.065,0.615-1.613,1.51-1.613
		c0.168,0,0.35,0.017,0.525,0.046l1.021-1.552C410.82,477.967,410.387,477.839,409.973,477.839z M417.715,481.606
		c0,0.222-0.016,0.488-0.037,0.651h-5.084c0.207,1.036,0.932,1.487,1.842,1.487c0.623,0,1.295-0.252,1.815-0.688l1.133,1.243
		c-0.814,0.748-1.852,1.089-3.057,1.089c-2.199,0-3.725-1.496-3.725-3.753c0-2.258,1.48-3.797,3.627-3.797
		C416.293,477.839,417.707,479.371,417.715,481.606z M415.775,480.94c-0.178-0.918-0.732-1.436-1.561-1.436
		c-0.91,0-1.443,0.548-1.613,1.436H415.775z M425.369,481.606c0,0.222-0.016,0.488-0.037,0.651h-5.086
		c0.207,1.036,0.934,1.487,1.844,1.487c0.621,0,1.295-0.252,1.813-0.688l1.133,1.243c-0.814,0.748-1.85,1.089-3.057,1.089
		c-2.199,0-3.723-1.496-3.723-3.753c0-2.258,1.48-3.797,3.627-3.797C423.947,477.839,425.361,479.371,425.369,481.606z
		 M423.43,480.94c-0.178-0.918-0.734-1.436-1.563-1.436c-0.91,0-1.443,0.548-1.613,1.436H423.43z M433.715,481.613
		c0,2.154-1.496,3.775-3.473,3.775c-0.961,0-1.643-0.378-2.109-0.933v3.708h-1.924v-10.133h1.887v0.792
		c0.467-0.585,1.154-0.984,2.139-0.984C432.219,477.839,433.715,479.46,433.715,481.613z M431.73,481.613
		c0-1.095-0.711-1.976-1.85-1.976c-1.096,0-1.844,0.844-1.844,1.976c0,1.133,0.748,1.977,1.844,1.977
		C431.02,483.59,431.73,482.709,431.73,481.613z M435.582,474.441c-0.697,0-1.229,0.548-1.229,1.243
		c0,0.696,0.531,1.229,1.229,1.229c0.695,0,1.236-0.533,1.236-1.229C436.818,474.989,436.277,474.441,435.582,474.441z
		 M434.627,485.203h1.932v-7.172h-1.932V485.203z M441.373,481.406l3.479-3.375h-2.367l-2.703,2.554v-6.04h-1.932v10.658h1.932
		v-2.901l2.717,2.901h2.377L441.373,481.406z M308.162,475.368h1.099v9.771h-1.099v-1.055c-0.527,0.718-1.392,1.23-2.388,1.23
		c-1.846,0-3.149-1.406-3.149-3.706c0-2.256,1.289-3.721,3.149-3.721c0.952,0,1.816,0.469,2.388,1.245V475.368z M308.162,480.012
		c-0.396-0.615-1.245-1.143-2.124-1.143c-1.421,0-2.27,1.172-2.27,2.739s0.85,2.725,2.27,2.725c0.879,0,1.729-0.498,2.124-1.113
		V480.012z M317.565,481.682v0.278h-5.727c0.088,1.333,1.025,2.446,2.549,2.446c0.806,0,1.626-0.322,2.182-0.894l0.527,0.718
		c-0.703,0.703-1.654,1.084-2.812,1.084c-2.095,0-3.604-1.509-3.604-3.721c0-2.051,1.465-3.706,3.486-3.706
		C316.307,477.888,317.565,479.558,317.565,481.682z M316.482,481.154c-0.015-1.055-0.718-2.358-2.329-2.358
		c-1.509,0-2.256,1.274-2.314,2.358H316.482z M319.616,479.895c0-0.63,0.601-1.113,1.567-1.113c0.908,0,1.685,0.381,2.109,0.893
		l0.513-0.762c-0.571-0.571-1.421-1.025-2.622-1.025c-1.685,0-2.637,0.938-2.637,2.036c0,2.622,4.38,1.567,4.38,3.281
		c0,0.703-0.586,1.216-1.67,1.216c-0.967,0-1.86-0.469-2.329-1.011l-0.571,0.791c0.718,0.762,1.699,1.113,2.857,1.113
		c1.831,0,2.783-0.952,2.783-2.139C323.996,480.422,319.616,481.447,319.616,479.895z M325.959,475.573
		c-0.396,0-0.732,0.337-0.732,0.747c0,0.41,0.337,0.732,0.732,0.732c0.41,0,0.747-0.322,0.747-0.732
		C326.706,475.91,326.369,475.573,325.959,475.573z M325.417,485.139h1.099v-7.075h-1.099V485.139z M333.458,478.064h1.099v6.87
		c0,2.344-1.641,3.076-3.369,3.076c-1.201,0-2.022-0.235-2.855-1.055l0.556-0.82c0.586,0.703,1.289,0.967,2.3,0.967
		c1.172,0,2.271-0.571,2.271-2.124v-1.011c-0.513,0.718-1.377,1.26-2.373,1.26c-1.846,0-3.15-1.377-3.15-3.662
		c0-2.271,1.289-3.677,3.15-3.677c0.952,0,1.802,0.469,2.373,1.245V478.064z M333.458,480.012c-0.381-0.615-1.23-1.143-2.109-1.143
		c-1.421,0-2.27,1.128-2.27,2.695c0,1.553,0.849,2.695,2.27,2.695c0.879,0,1.728-0.542,2.109-1.157V480.012z M340.006,477.888
		c-1.055,0-2.021,0.615-2.52,1.201v-1.025h-1.099v7.075h1.099v-5.171c0.41-0.571,1.23-1.099,2.095-1.099
		c0.952,0,1.582,0.395,1.582,1.641v4.629h1.099v-4.966C342.262,478.635,341.485,477.888,340.006,477.888z M350.566,481.682v0.278
		h-5.727c0.088,1.333,1.025,2.446,2.548,2.446c0.806,0,1.626-0.322,2.183-0.894l0.527,0.718c-0.703,0.703-1.655,1.084-2.813,1.084
		c-2.094,0-3.604-1.509-3.604-3.721c0-2.051,1.465-3.706,3.486-3.706C349.307,477.888,350.566,479.558,350.566,481.682z
		 M349.482,481.154c-0.015-1.055-0.718-2.358-2.329-2.358c-1.509,0-2.256,1.274-2.314,2.358H349.482z M357.1,475.368h1.099v9.771
		H357.1v-1.055c-0.527,0.718-1.392,1.23-2.388,1.23c-1.846,0-3.149-1.406-3.149-3.706c0-2.256,1.289-3.721,3.149-3.721
		c0.952,0,1.816,0.469,2.388,1.245V475.368z M357.1,480.012c-0.396-0.615-1.245-1.143-2.124-1.143c-1.421,0-2.27,1.172-2.27,2.739
		s0.85,2.725,2.27,2.725c0.879,0,1.729-0.498,2.124-1.113V480.012z M370.077,481.608c0,2.3-1.304,3.706-3.149,3.706
		c-0.996,0-1.86-0.513-2.388-1.23v1.055h-1.099v-9.771h1.099v3.765c0.571-0.776,1.421-1.245,2.388-1.245
		C368.773,477.888,370.077,479.353,370.077,481.608z M368.935,481.608c0-1.567-0.85-2.739-2.285-2.739
		c-0.864,0-1.728,0.527-2.109,1.143v3.208c0.381,0.615,1.245,1.113,2.109,1.113C368.085,484.333,368.935,483.176,368.935,481.608z
		 M373.988,483.864l-2.358-5.801h-1.186l2.959,7.148l-0.469,1.069c-0.249,0.586-0.571,0.747-1.055,0.747
		c-0.176,0-0.439-0.044-0.601-0.117l-0.176,0.995c0.205,0.059,0.571,0.103,0.806,0.103c0.938-0.015,1.655-0.411,2.08-1.436
		l3.545-8.511h-1.201L373.988,483.864z"/>
</g>
</svg>
