<svg xmlns="http://www.w3.org/2000/svg" xmlns:xlink="http://www.w3.org/1999/xlink" viewBox="0 0 12.09 10.71"><defs><style>.cls-1{isolation:isolate;}.cls-2{opacity:0.46;mix-blend-mode:multiply;fill:url(#radial-gradient);}.cls-3{fill:#00a658;}.cls-3,.cls-4,.cls-5{fill-rule:evenodd;}.cls-4{fill:#00a3d3;}.cls-5{fill:#ad498c;}</style><radialGradient id="radial-gradient" cx="-433.11" cy="-356.16" fx="-422.9305059759108" r="40.74" gradientTransform="matrix(0.15, 0, -0.01, 0.04, 110.07, 61.32)" gradientUnits="userSpaceOnUse"><stop offset="0" stop-color="#272727"/><stop offset="0.05" stop-color="#383838"/><stop offset="0.24" stop-color="#7e7e7e"/><stop offset="0.42" stop-color="#b6b6b6"/><stop offset="0.57" stop-color="#dedede"/><stop offset="0.7" stop-color="#f6f6f6"/><stop offset="0.77" stop-color="#fff"/></radialGradient></defs><g class="cls-1"><g id="Layer_1" data-name="Layer 1"><path class="cls-2" d="M53.94,44.78c-.15,1-3,1.7-6.31,1.64s-5.92-.91-5.76-1.88,3-1.71,6.31-1.64S54.1,43.8,53.94,44.78Z" transform="translate(-41.86 -35.71)"/><path class="cls-3" d="M45.7,39.66c-.19-.58-1-.32-.77.41A5.45,5.45,0,0,0,48,44a2.86,2.86,0,0,0,3.52-1c.32-.47.32-.65,0-.24a1.76,1.76,0,0,1-2.66.12c-.7-.7-1-2-.47-3.84.15-.68-.32-.53-.52.12-.32,1.32-1.21,4.54-2.11.52Z" transform="translate(-41.86 -35.71)"/><path class="cls-3" d="M46.21,39.43a1.94,1.94,0,0,1,.45-.62c.13-.08.22-.14.35-.11a.6.6,0,0,1,.48.55,1.81,1.81,0,0,1-.16,1.06,1.75,1.75,0,0,1-.35.61l-.19.12c-.23.12-.42.06-.61-.2a1,1,0,0,1-.09-.24,2.23,2.23,0,0,1,.12-1.17Z" transform="translate(-41.86 -35.71)"/><path class="cls-4" d="M50.69,37.38A1.48,1.48,0,0,0,50,37a.4.4,0,0,0-.38.06c-.2.15-.23.35-.13.68a2.43,2.43,0,0,0,.64.88,2.5,2.5,0,0,0,.61.35A.72.72,0,0,0,51,39a.39.39,0,0,0,.42-.41.75.75,0,0,0,0-.24,2.94,2.94,0,0,0-.71-1Z" transform="translate(-41.86 -35.71)"/><path class="cls-4" d="M51.17,37.43c.58.3.93-.44.19-.79A6.4,6.4,0,0,0,46.25,36a2.43,2.43,0,0,0-1.57,3c.16.53.28.64.22.12a1.56,1.56,0,0,1,1.7-1.82,4.53,4.53,0,0,1,3.32,2.26c.42.58.61.14.23-.42-.8-1.08-2.72-3.84,1-1.73Z" transform="translate(-41.86 -35.71)"/><path class="cls-5" d="M50.76,42.19c-.48.38.12.91.7.44,1.73-1.32,2.46-2.79,2.4-4.05a2.48,2.48,0,0,0-2.43-2.32c-.55-.06-.74,0-.19.15,1.08.23,1.63,1.08,1.21,2S51,40,49.06,40.4c-.7.14-.35.47.32.32,1.38-.26,4.77-.91,1.38,1.47Z" transform="translate(-41.86 -35.71)"/><path class="cls-5" d="M50.28,41.77a2.71,2.71,0,0,1-.77-.08.42.42,0,0,1-.26-.24.6.6,0,0,1,.35-.61,2.41,2.41,0,0,1,1.06-.33,1.68,1.68,0,0,1,.7.06.3.3,0,0,1,.2.09c.19.12.22.29.06.53a.46.46,0,0,1-.19.17,2.48,2.48,0,0,1-1.15.41Z" transform="translate(-41.86 -35.71)"/></g></g></svg>