<svg xmlns="http://www.w3.org/2000/svg" xmlns:xlink="http://www.w3.org/1999/xlink" viewBox="0 0 500 500"><defs><style>.cls-1{isolation:isolate;}.cls-2,.cls-3,.cls-9{fill:#fff;}.cls-3,.cls-5,.cls-8{opacity:0.46;mix-blend-mode:darken;}.cls-4,.cls-5{fill:#262233;}.cls-6{opacity:0.45;mix-blend-mode:overlay;}.cls-7,.cls-8{fill:url(#Degradado_sin_nombre_5);}.cls-9{fill-rule:evenodd;}</style><radialGradient id="Degradado_sin_nombre_5" cx="250" cy="250" r="250" gradientUnits="userSpaceOnUse"><stop offset="0" stop-color="#0071bc"/><stop offset="0.18" stop-color="#0368b4"/><stop offset="0.47" stop-color="#0a509d"/><stop offset="0.83" stop-color="#152978"/><stop offset="1" stop-color="#1b1464"/></radialGradient></defs><g class="cls-1"><g id="BACKGROUND"><rect class="cls-2" width="500" height="500"/><rect class="cls-3" width="500" height="500"/><rect class="cls-4" width="500" height="500"/><rect class="cls-5" width="500" height="500"/><g class="cls-6"><rect class="cls-7" width="500" height="500"/><rect class="cls-8" width="500" height="500"/></g></g><g id="OBJECTS"><path class="cls-9" d="M234.43,205.48l-26.14-26.39a4.55,4.55,0,0,1-2,.46,4.51,4.51,0,1,1,4.51-4.5,4.43,4.43,0,0,1-.53,2.11l26.12,26.37Zm15.06-11.62-27.68-28a4.39,4.39,0,0,0,.44-1.91,4.51,4.51,0,1,0-2.33,3.94l27.61,27.92L258,206.19l1.95-2Zm33.06-34.41A4.51,4.51,0,0,0,278,164a4.56,4.56,0,0,0,.5,2l-26.43,26.43,2,2L280.5,168a4.56,4.56,0,0,0,2.05.49,4.51,4.51,0,1,0,0-9ZM295,169.85a4.5,4.5,0,0,0-3.89,6.78l-39,39,2,2,39.14-39.14a4.59,4.59,0,0,0,1.82.38,4.51,4.51,0,0,0,0-9Zm-.7,66.2a4.56,4.56,0,0,0-2.05.49l-26.43-26.43-2,2,26.43,26.43a4.56,4.56,0,0,0-.49,2.05,4.51,4.51,0,1,0,4.5-4.5Zm-11.09,11.78a4.44,4.44,0,0,0-2.05.5L243,210.11l-2,2,38.21,38.22a4.51,4.51,0,1,0,4-2.46ZM247.49,201l-2-2L209.05,235.5a4.52,4.52,0,1,0,1.95,2Zm1,21.84-2-2L220.12,247.3a4.51,4.51,0,1,0,2,1.94Zm-15.89-14.5L230.22,207H174.57a4.5,4.5,0,1,0,0,2.6h55.65Zm-9.36-11.49-2.07-2.08H192.73a2.93,2.93,0,1,0,0,2.08Zm-1,22.87H184.09a3.61,3.61,0,1,0,0,2.08h35Zm47.82-10.12h55.65a4.51,4.51,0,1,0,0-2.6H270.07l-2.42,1.34Zm37.49-12.75a2.93,2.93,0,1,0,0-2.08H279.08L277,196.83Zm-26.4,24.95h35a3.62,3.62,0,1,0,0-2.08H278Zm-30.09,3.81L249.73,228v55.65a4.51,4.51,0,1,0,2.6,0V228Zm-11.49,9.35L237.5,237V265.5a2.93,2.93,0,1,0,2.08,0Zm22.87,1v38.16a3.61,3.61,0,1,0,2.08,0v-35Zm-10.12-48.52V131.82a4.5,4.5,0,1,0-2.6,0v55.64l1.34,2.43ZM239.58,150a2.93,2.93,0,1,0-2.08,0v28.47l2.08,2.08Zm24.95,26.39v-35a3.61,3.61,0,1,0-2.08,0v38.15Z"/></g></g></svg>