<svg id="Layer_1" data-name="Layer 1" xmlns="http://www.w3.org/2000/svg" xmlns:xlink="http://www.w3.org/1999/xlink" viewBox="0 0 480 312"><defs><style>.cls-1,.cls-2{fill:none;}.cls-2{clip-rule:evenodd;}.cls-3{clip-path:url(#clip-path);}.cls-4{clip-path:url(#clip-path-2);}.cls-5{fill:url(#linear-gradient);}.cls-6{clip-path:url(#clip-path-4);}.cls-7,.cls-9{opacity:0.3;}.cls-7{fill:url(#linear-gradient-2);}.cls-8{clip-path:url(#clip-path-5);}.cls-9{fill:url(#linear-gradient-3);}.cls-10{clip-path:url(#clip-path-6);}.cls-11{clip-path:url(#clip-path-7);}</style><clipPath id="clip-path" transform="translate(-52.5 -54.5)"><rect class="cls-1" x="-1" y="1" width="587" height="419"/></clipPath><clipPath id="clip-path-2" transform="translate(-52.5 -54.5)"><rect class="cls-1" x="52.5" y="54.5" width="480" height="312"/></clipPath><linearGradient id="linear-gradient" x1="-2.61" y1="4.17" x2="574.64" y2="365.42" gradientUnits="userSpaceOnUse"><stop offset="0" stop-color="#ec1c24"/><stop offset="0.1" stop-color="#ed2622"/><stop offset="0.26" stop-color="#ef401e"/><stop offset="0.47" stop-color="#f36c17"/><stop offset="0.73" stop-color="#f8a70c"/><stop offset="1" stop-color="#fff100"/></linearGradient><clipPath id="clip-path-4" transform="translate(-52.5 -54.5)"><path class="cls-2" d="M96.32,366.5c23-24.62,68.57-61.57,138.18-67,105.75-8.25,78-50.25,136.5-86.25s60-12,93-63c26-40.19,21.28-79.45,46.74-95.75H52.5v312Z"/></clipPath><linearGradient id="linear-gradient-2" x1="6.29" y1="-8.51" x2="312.2" y2="217.34" gradientUnits="userSpaceOnUse"><stop offset="0" stop-color="#ec1c24"/><stop offset="1" stop-color="#fff100"/></linearGradient><clipPath id="clip-path-5" transform="translate(-52.5 -54.5)"><path class="cls-2" d="M532.5,89.44c-24.69,16.56-20.27,55.48-46,95.31-33,51-34.5,27-93,63S362.71,325.75,257,334a207,207,0,0,0-96.82,32.5H52.5V54.5h480Z"/></clipPath><linearGradient id="linear-gradient-3" x1="10.12" y1="-13.71" x2="316.04" y2="212.14" xlink:href="#linear-gradient-2"/><clipPath id="clip-path-6" transform="translate(-52.5 -54.5)"><path class="cls-2" d="M298.14,366.5c83.81-11.62,63-50.56,117.77-84.26,58.5-36,60-12,93-63,13-20.12,18.33-40,23.59-56.9V54.5H52.5v312Z"/></clipPath><clipPath id="clip-path-7" transform="translate(-52.5 -54.5)"><path class="cls-2" d="M532.5,251.94c-.37.6-.75,1.2-1.13,1.8-33,51-34.51,27-93,63-27,16.61-35.62,34.5-47.48,49.76H52.5V54.5h480Z"/></clipPath></defs><g class="cls-3"><g class="cls-4"><rect class="cls-5" width="480" height="312"/></g><g class="cls-4"><g class="cls-6"><rect class="cls-7" width="458.24" height="312"/></g><g class="cls-8"><rect class="cls-9" width="480" height="312"/></g><g class="cls-10"><rect class="cls-9" width="480" height="312"/></g><g class="cls-11"><rect class="cls-9" width="480" height="312"/></g></g></g></svg>